<svg id="root" width="250px" height="250px" xmlns="http://www.w3.org/2000/svg" xlink="http://www.w3.org/1999/xlink" version="1.1"><defs id="2j1l6vqxc8x"></defs><rect x="0" y="0" width="15.625" height="16.666666666666668" fill="rgba(255, 0, 0, 1)" id="2rgmeq6hogs"></rect><rect x="15.625" y="0" width="15.625" height="16.666666666666668" fill="rgba(238, 0, 17, 1)" id="tb6ezvgcjzi"></rect><rect x="31.25" y="0" width="15.625" height="16.666666666666668" fill="rgba(221, 0, 34, 1)" id="7f34wueiup2"></rect><rect x="46.875" y="0" width="15.625" height="16.666666666666668" fill="rgba(204, 0, 51, 1)" id="aqw7rwihq54"></rect><rect x="62.5" y="0" width="15.625" height="16.666666666666668" fill="rgba(187, 0, 68, 1)" id="0vfyeo5y8fk"></rect><rect x="78.125" y="0" width="15.625" height="16.666666666666668" fill="rgba(170, 0, 85, 1)" id="lq2lujpvafp"></rect><rect x="93.75" y="0" width="15.625" height="16.666666666666668" fill="rgba(153, 0, 102, 1)" id="y7aosgv66bj"></rect><rect x="109.375" y="0" width="15.625" height="16.666666666666668" fill="rgba(136, 0, 119, 1)" id="8mxtbjvwm26"></rect><rect x="125" y="0" width="15.625" height="16.666666666666668" fill="rgba(119, 0, 136, 1)" id="xd5xmcntwb"></rect><rect x="140.625" y="0" width="15.625" height="16.666666666666668" fill="rgba(102, 0, 153, 1)" id="ovc8f01dotg"></rect><rect x="156.25" y="0" width="15.625" height="16.666666666666668" fill="rgba(85, 0, 170, 1)" id="gb9hbopduu8"></rect><rect x="171.875" y="0" width="15.625" height="16.666666666666668" fill="rgba(68, 0, 187, 1)" id="4jn64krec3d"></rect><rect x="187.5" y="0" width="15.625" height="16.666666666666668" fill="rgba(51, 0, 204, 1)" id="ov9pbm0r4sh"></rect><rect x="203.125" y="0" width="15.625" height="16.666666666666668" fill="rgba(34, 0, 221, 1)" id="62zzxljfthc"></rect><rect x="218.75" y="0" width="15.625" height="16.666666666666668" fill="rgba(17, 0, 238, 1)" id="sy3vy7m2l0o"></rect><rect x="234.375" y="0" width="15.625" height="16.666666666666668" fill="rgba(0, 0, 255, 1)" id="gclgdaq49lm"></rect><rect x="0" y="83.33333333333334" width="15.625" height="16.666666666666668" fill="rgba(255, 0, 0, 1)" id="r9aftpdvng"></rect><rect x="15.625" y="83.33333333333334" width="15.625" height="16.666666666666668" fill="rgba(238, 17, 0, 1)" id="866bupq7rvk"></rect><rect x="31.25" y="83.33333333333334" width="15.625" height="16.666666666666668" fill="rgba(221, 34, 0, 1)" id="j5pjw3t1vj"></rect><rect x="46.875" y="83.33333333333334" width="15.625" height="16.666666666666668" fill="rgba(204, 51, 0, 1)" id="dyd7zg4f57u"></rect><rect x="62.5" y="83.33333333333334" width="15.625" height="16.666666666666668" fill="rgba(187, 68, 0, 1)" id="99a0dqhq7ow"></rect><rect x="78.125" y="83.33333333333334" width="15.625" height="16.666666666666668" fill="rgba(170, 85, 0, 1)" id="10qw0h5ra6zp"></rect><rect x="93.75" y="83.33333333333334" width="15.625" height="16.666666666666668" fill="rgba(153, 102, 0, 1)" id="3k5cgja28j3"></rect><rect x="109.375" y="83.33333333333334" width="15.625" height="16.666666666666668" fill="rgba(136, 119, 0, 1)" id="6m5x0orxtdf"></rect><rect x="125" y="83.33333333333334" width="15.625" height="16.666666666666668" fill="rgba(119, 136, 0, 1)" id="mzzv1xfs77d"></rect><rect x="140.625" y="83.33333333333334" width="15.625" height="16.666666666666668" fill="rgba(102, 153, 0, 1)" id="u1xw92j703o"></rect><rect x="156.25" y="83.33333333333334" width="15.625" height="16.666666666666668" fill="rgba(85, 170, 0, 1)" id="5jli9n1d6b3"></rect><rect x="171.875" y="83.33333333333334" width="15.625" height="16.666666666666668" fill="rgba(68, 187, 0, 1)" id="0mp3ywtzy5si"></rect><rect x="187.5" y="83.33333333333334" width="15.625" height="16.666666666666668" fill="rgba(51, 204, 0, 1)" id="ks5evrpas6j"></rect><rect x="203.125" y="83.33333333333334" width="15.625" height="16.666666666666668" fill="rgba(34, 221, 0, 1)" id="s797c5s5m9n"></rect><rect x="218.75" y="83.33333333333334" width="15.625" height="16.666666666666668" fill="rgba(17, 238, 0, 1)" id="iqrv15e3eih"></rect><rect x="234.375" y="83.33333333333334" width="15.625" height="16.666666666666668" fill="rgba(0, 255, 0, 1)" id="lfpeou2tas"></rect><rect x="0" y="166.66666666666669" width="15.625" height="16.666666666666668" fill="rgba(18, 52, 86, 1)" id="tw51vcs7di"></rect><rect x="15.625" y="166.66666666666669" width="15.625" height="16.666666666666668" fill="rgba(28, 62, 96, 1)" id="9z66beylevo"></rect><rect x="31.25" y="166.66666666666669" width="15.625" height="16.666666666666668" fill="rgba(38, 72, 106, 1)" id="y3lvof5qhq"></rect><rect x="46.875" y="166.66666666666669" width="15.625" height="16.666666666666668" fill="rgba(49, 83, 117, 1)" id="w4d0c7bta1"></rect><rect x="62.5" y="166.66666666666669" width="15.625" height="16.666666666666668" fill="rgba(59, 93, 127, 1)" id="04edxg520y2n"></rect><rect x="78.125" y="166.66666666666669" width="15.625" height="16.666666666666668" fill="rgba(69, 103, 137, 1)" id="pwg8145np5r"></rect><rect x="93.75" y="166.66666666666669" width="15.625" height="16.666666666666668" fill="rgba(79, 113, 147, 1)" id="13jq81e2t78"></rect><rect x="109.375" y="166.66666666666669" width="15.625" height="16.666666666666668" fill="rgba(89, 123, 157, 1)" id="ukd20u0jdgb"></rect><rect x="125" y="166.66666666666669" width="15.625" height="16.666666666666668" fill="rgba(100, 134, 168, 1)" id="vabox3a5j4"></rect><rect x="140.625" y="166.66666666666669" width="15.625" height="16.666666666666668" fill="rgba(110, 144, 178, 1)" id="l5kd6vy98k9"></rect><rect x="156.25" y="166.66666666666669" width="15.625" height="16.666666666666668" fill="rgba(120, 154, 188, 1)" id="2q2kxdpb9hm"></rect><rect x="171.875" y="166.66666666666669" width="15.625" height="16.666666666666668" fill="rgba(130, 164, 198, 1)" id="nfbly5gyni8"></rect><rect x="187.5" y="166.66666666666669" width="15.625" height="16.666666666666668" fill="rgba(140, 174, 208, 1)" id="2ib2t1rt19n"></rect><rect x="203.125" y="166.66666666666669" width="15.625" height="16.666666666666668" fill="rgba(151, 185, 219, 1)" id="rgn9gl3gw5"></rect><rect x="218.75" y="166.66666666666669" width="15.625" height="16.666666666666668" fill="rgba(161, 195, 229, 1)" id="m73w2ww3f8"></rect><rect x="234.375" y="166.66666666666669" width="15.625" height="16.666666666666668" fill="rgba(171, 205, 239, 1)" id="ot6inc5ka"></rect><rect x="0" y="16.666666666666668" width="15.625" height="16.666666666666668" fill="hsla(0, 100%, 50%, 1)" id="g8fnv3klerr"></rect><rect x="15.625" y="16.666666666666668" width="15.625" height="16.666666666666668" fill="hsla(352, 100%, 50%, 1)" id="9klv6i2puru"></rect><rect x="31.25" y="16.666666666666668" width="15.625" height="16.666666666666668" fill="hsla(344, 100%, 50%, 1)" id="y5vbwyoawa"></rect><rect x="46.875" y="16.666666666666668" width="15.625" height="16.666666666666668" fill="hsla(336, 100%, 50%, 1)" id="sa0caqlfspr"></rect><rect x="62.5" y="16.666666666666668" width="15.625" height="16.666666666666668" fill="hsla(328, 100%, 50%, 1)" id="7pl62a3zq23"></rect><rect x="78.125" y="16.666666666666668" width="15.625" height="16.666666666666668" fill="hsla(320, 100%, 50%, 1)" id="v97kc3xrq1"></rect><rect x="93.75" y="16.666666666666668" width="15.625" height="16.666666666666668" fill="hsla(312, 100%, 50%, 1)" id="7hytqc0jc93"></rect><rect x="109.375" y="16.666666666666668" width="15.625" height="16.666666666666668" fill="hsla(304, 100%, 50%, 1)" id="l30h7ag182"></rect><rect x="125" y="16.666666666666668" width="15.625" height="16.666666666666668" fill="hsla(296, 100%, 50%, 1)" id="71cw9hl8b7m"></rect><rect x="140.625" y="16.666666666666668" width="15.625" height="16.666666666666668" fill="hsla(288, 100%, 50%, 1)" id="h5ncowdiggo"></rect><rect x="156.25" y="16.666666666666668" width="15.625" height="16.666666666666668" fill="hsla(280, 100%, 50%, 1)" id="cuhaxix2scm"></rect><rect x="171.875" y="16.666666666666668" width="15.625" height="16.666666666666668" fill="hsla(272, 100%, 50%, 1)" id="6x9ubpb3jdm"></rect><rect x="187.5" y="16.666666666666668" width="15.625" height="16.666666666666668" fill="hsla(264, 100%, 50%, 1)" id="xvoxrard10n"></rect><rect x="203.125" y="16.666666666666668" width="15.625" height="16.666666666666668" fill="hsla(256, 100%, 50%, 1)" id="y7oe579rjfg"></rect><rect x="218.75" y="16.666666666666668" width="15.625" height="16.666666666666668" fill="hsla(248, 100%, 50%, 1)" id="y7iybrhlmj"></rect><rect x="234.375" y="16.666666666666668" width="15.625" height="16.666666666666668" fill="hsla(240, 100%, 50%, 1)" id="9cylojf8iw7"></rect><rect x="0" y="100" width="15.625" height="16.666666666666668" fill="hsla(0, 100%, 50%, 1)" id="89kzl4vz0fa"></rect><rect x="15.625" y="100" width="15.625" height="16.666666666666668" fill="hsla(8, 100%, 50%, 1)" id="6s421v6zx49"></rect><rect x="31.25" y="100" width="15.625" height="16.666666666666668" fill="hsla(16, 100%, 50%, 1)" id="htb0eqr77xr"></rect><rect x="46.875" y="100" width="15.625" height="16.666666666666668" fill="hsla(24, 100%, 50%, 1)" id="7qohzn33mg"></rect><rect x="62.5" y="100" width="15.625" height="16.666666666666668" fill="hsla(32, 100%, 50%, 1)" id="8854l40ruf4"></rect><rect x="78.125" y="100" width="15.625" height="16.666666666666668" fill="hsla(40, 100%, 50%, 1)" id="gu1r8j2e5bj"></rect><rect x="93.75" y="100" width="15.625" height="16.666666666666668" fill="hsla(48, 100%, 50%, 1)" id="8zpnm8s912m"></rect><rect x="109.375" y="100" width="15.625" height="16.666666666666668" fill="hsla(56, 100%, 50%, 1)" id="cr2vy6fdg7e"></rect><rect x="125" y="100" width="15.625" height="16.666666666666668" fill="hsla(64, 100%, 50%, 1)" id="yl8wonsqf4"></rect><rect x="140.625" y="100" width="15.625" height="16.666666666666668" fill="hsla(72, 100%, 50%, 1)" id="qydew5wy9a"></rect><rect x="156.25" y="100" width="15.625" height="16.666666666666668" fill="hsla(80, 100%, 50%, 1)" id="nja3lx4uwfo"></rect><rect x="171.875" y="100" width="15.625" height="16.666666666666668" fill="hsla(88, 100%, 50%, 1)" id="sul8c1mhfw"></rect><rect x="187.5" y="100" width="15.625" height="16.666666666666668" fill="hsla(96, 100%, 50%, 1)" id="ph1f1dm74jb"></rect><rect x="203.125" y="100" width="15.625" height="16.666666666666668" fill="hsla(104, 100%, 50%, 1)" id="v86h726bmw"></rect><rect x="218.75" y="100" width="15.625" height="16.666666666666668" fill="hsla(112, 100%, 50%, 1)" id="ebpaly8u0va"></rect><rect x="234.375" y="100" width="15.625" height="16.666666666666668" fill="hsla(120, 100%, 50%, 1)" id="dis53wc7jcw"></rect><rect x="0" y="183.33333333333334" width="15.625" height="16.666666666666668" fill="hsla(210, 65.3846153846154%, 20.392156862745097%, 1)" id="a4p590e4ruw"></rect><rect x="15.625" y="183.33333333333334" width="15.625" height="16.666666666666668" fill="hsla(210, 65.55897435897438%, 24.3921568627451%, 1)" id="2j8ra5at2ib"></rect><rect x="31.25" y="183.33333333333334" width="15.625" height="16.666666666666668" fill="hsla(210, 65.73333333333335%, 28.3921568627451%, 1)" id="310lrokr82n"></rect><rect x="46.875" y="183.33333333333334" width="15.625" height="16.666666666666668" fill="hsla(210, 65.90769230769233%, 32.392156862745104%, 1)" id="xrpa7jwscy"></rect><rect x="62.5" y="183.33333333333334" width="15.625" height="16.666666666666668" fill="hsla(210, 66.0820512820513%, 36.392156862745104%, 1)" id="n20dh5twef"></rect><rect x="78.125" y="183.33333333333334" width="15.625" height="16.666666666666668" fill="hsla(210, 66.25641025641028%, 40.3921568627451%, 1)" id="ne3rrhm156k"></rect><rect x="93.75" y="183.33333333333334" width="15.625" height="16.666666666666668" fill="hsla(210, 66.43076923076924%, 44.392156862745104%, 1)" id="vvzzz1plvnj"></rect><rect x="109.375" y="183.33333333333334" width="15.625" height="16.666666666666668" fill="hsla(210, 66.60512820512822%, 48.392156862745104%, 1)" id="91dxhktbsww"></rect><rect x="125" y="183.33333333333334" width="15.625" height="16.666666666666668" fill="hsla(210, 66.77948717948719%, 52.3921568627451%, 1)" id="orb4q3mbdab"></rect><rect x="140.625" y="183.33333333333334" width="15.625" height="16.666666666666668" fill="hsla(210, 66.95384615384617%, 56.392156862745104%, 1)" id="vj8n4xw3xh"></rect><rect x="156.25" y="183.33333333333334" width="15.625" height="16.666666666666668" fill="hsla(210, 67.12820512820515%, 60.392156862745104%, 1)" id="to7w43ofkdp"></rect><rect x="171.875" y="183.33333333333334" width="15.625" height="16.666666666666668" fill="hsla(210, 67.30256410256412%, 64.39215686274511%, 1)" id="jlxb2ym3jgh"></rect><rect x="187.5" y="183.33333333333334" width="15.625" height="16.666666666666668" fill="hsla(210, 67.4769230769231%, 68.39215686274511%, 1)" id="n3vefr96z1e"></rect><rect x="203.125" y="183.33333333333334" width="15.625" height="16.666666666666668" fill="hsla(210, 67.65128205128208%, 72.39215686274511%, 1)" id="5sj91i9q87y"></rect><rect x="218.75" y="183.33333333333334" width="15.625" height="16.666666666666668" fill="hsla(210, 67.82564102564105%, 76.3921568627451%, 1)" id="gavd6apbh8c"></rect><rect x="234.375" y="183.33333333333334" width="15.625" height="16.666666666666668" fill="hsla(210, 68.00000000000003%, 80.3921568627451%, 1)" id="l82xeqnszdh"></rect><rect x="0" y="33.333333333333336" width="15.625" height="16.666666666666668" fill="hsla(0, 100%, 50%, 1)" id="bihsu778oxv"></rect><rect x="15.625" y="33.333333333333336" width="15.625" height="16.666666666666668" fill="hsla(16, 100%, 50%, 1)" id="rkixti6vxo"></rect><rect x="31.25" y="33.333333333333336" width="15.625" height="16.666666666666668" fill="hsla(32, 100%, 50%, 1)" id="dldadh5anip"></rect><rect x="46.875" y="33.333333333333336" width="15.625" height="16.666666666666668" fill="hsla(48, 100%, 50%, 1)" id="5uxivultxdm"></rect><rect x="62.5" y="33.333333333333336" width="15.625" height="16.666666666666668" fill="hsla(64, 100%, 50%, 1)" id="b13kvewww0s"></rect><rect x="78.125" y="33.333333333333336" width="15.625" height="16.666666666666668" fill="hsla(80, 100%, 50%, 1)" id="qxe3wnqgel"></rect><rect x="93.75" y="33.333333333333336" width="15.625" height="16.666666666666668" fill="hsla(96, 100%, 50%, 1)" id="4hrxm6mylan"></rect><rect x="109.375" y="33.333333333333336" width="15.625" height="16.666666666666668" fill="hsla(112, 100%, 50%, 1)" id="szn294jzgi"></rect><rect x="125" y="33.333333333333336" width="15.625" height="16.666666666666668" fill="hsla(128, 100%, 50%, 1)" id="nnkiuotb4z"></rect><rect x="140.625" y="33.333333333333336" width="15.625" height="16.666666666666668" fill="hsla(144, 100%, 50%, 1)" id="pl6fp2022xg"></rect><rect x="156.25" y="33.333333333333336" width="15.625" height="16.666666666666668" fill="hsla(160, 100%, 50%, 1)" id="dwioyp51wji"></rect><rect x="171.875" y="33.333333333333336" width="15.625" height="16.666666666666668" fill="hsla(176, 100%, 50%, 1)" id="wj0roqf5jxg"></rect><rect x="187.5" y="33.333333333333336" width="15.625" height="16.666666666666668" fill="hsla(192, 100%, 50%, 1)" id="ovrcy24wh7k"></rect><rect x="203.125" y="33.333333333333336" width="15.625" height="16.666666666666668" fill="hsla(208, 100%, 50%, 1)" id="zq3gv1xuiwd"></rect><rect x="218.75" y="33.333333333333336" width="15.625" height="16.666666666666668" fill="hsla(224, 100%, 50%, 1)" id="h3ky7a5oax"></rect><rect x="234.375" y="33.333333333333336" width="15.625" height="16.666666666666668" fill="hsla(240, 100%, 50%, 1)" id="fzjg0kg9e7p"></rect><rect x="0" y="116.66666666666667" width="15.625" height="16.666666666666668" fill="hsla(0, 100%, 50%, 1)" id="22zcodl83ii"></rect><rect x="15.625" y="116.66666666666667" width="15.625" height="16.666666666666668" fill="hsla(344, 100%, 50%, 1)" id="xw8n4b4uyr"></rect><rect x="31.25" y="116.66666666666667" width="15.625" height="16.666666666666668" fill="hsla(328, 100%, 50%, 1)" id="6gjzvin68o8"></rect><rect x="46.875" y="116.66666666666667" width="15.625" height="16.666666666666668" fill="hsla(312, 100%, 50%, 1)" id="7z0nx29ny67"></rect><rect x="62.5" y="116.66666666666667" width="15.625" height="16.666666666666668" fill="hsla(296, 100%, 50%, 1)" id="isy5qpknk5a"></rect><rect x="78.125" y="116.66666666666667" width="15.625" height="16.666666666666668" fill="hsla(280, 100%, 50%, 1)" id="09vakxudpqpq"></rect><rect x="93.75" y="116.66666666666667" width="15.625" height="16.666666666666668" fill="hsla(264, 100%, 50%, 1)" id="774nie7ed4k"></rect><rect x="109.375" y="116.66666666666667" width="15.625" height="16.666666666666668" fill="hsla(248, 100%, 50%, 1)" id="yc2hzn0kmck"></rect><rect x="125" y="116.66666666666667" width="15.625" height="16.666666666666668" fill="hsla(232, 100%, 50%, 1)" id="q02wdla878"></rect><rect x="140.625" y="116.66666666666667" width="15.625" height="16.666666666666668" fill="hsla(216, 100%, 50%, 1)" id="mvpdgygixb8"></rect><rect x="156.25" y="116.66666666666667" width="15.625" height="16.666666666666668" fill="hsla(200, 100%, 50%, 1)" id="o1kga65o81"></rect><rect x="171.875" y="116.66666666666667" width="15.625" height="16.666666666666668" fill="hsla(184, 100%, 50%, 1)" id="9v33kvqznji"></rect><rect x="187.5" y="116.66666666666667" width="15.625" height="16.666666666666668" fill="hsla(168, 100%, 50%, 1)" id="jk9rnfs3z8"></rect><rect x="203.125" y="116.66666666666667" width="15.625" height="16.666666666666668" fill="hsla(152, 100%, 50%, 1)" id="ngfo1055fj"></rect><rect x="218.75" y="116.66666666666667" width="15.625" height="16.666666666666668" fill="hsla(136, 100%, 50%, 1)" id="3gbma3vype"></rect><rect x="234.375" y="116.66666666666667" width="15.625" height="16.666666666666668" fill="hsla(120, 100%, 50%, 1)" id="m6iborqodsm"></rect><rect x="0" y="200" width="15.625" height="16.666666666666668" fill="hsla(210, 65.3846153846154%, 20.392156862745097%, 1)" id="f0hl4tuvj6d"></rect><rect x="15.625" y="200" width="15.625" height="16.666666666666668" fill="hsla(210, 65.55897435897438%, 24.3921568627451%, 1)" id="a273b6ixom"></rect><rect x="31.25" y="200" width="15.625" height="16.666666666666668" fill="hsla(210, 65.73333333333335%, 28.3921568627451%, 1)" id="qanadezhe6f"></rect><rect x="46.875" y="200" width="15.625" height="16.666666666666668" fill="hsla(210, 65.90769230769233%, 32.392156862745104%, 1)" id="v5j0z8e1ubf"></rect><rect x="62.5" y="200" width="15.625" height="16.666666666666668" fill="hsla(210, 66.0820512820513%, 36.392156862745104%, 1)" id="4m8xojd0185"></rect><rect x="78.125" y="200" width="15.625" height="16.666666666666668" fill="hsla(210, 66.25641025641028%, 40.3921568627451%, 1)" id="qhb6crtbto"></rect><rect x="93.75" y="200" width="15.625" height="16.666666666666668" fill="hsla(210, 66.43076923076924%, 44.392156862745104%, 1)" id="k23uf2fxwjp"></rect><rect x="109.375" y="200" width="15.625" height="16.666666666666668" fill="hsla(210, 66.60512820512822%, 48.392156862745104%, 1)" id="mpialhy2ll"></rect><rect x="125" y="200" width="15.625" height="16.666666666666668" fill="hsla(210, 66.77948717948719%, 52.3921568627451%, 1)" id="ibcxqe8ke1"></rect><rect x="140.625" y="200" width="15.625" height="16.666666666666668" fill="hsla(210, 66.95384615384617%, 56.392156862745104%, 1)" id="rhzn13hhm8c"></rect><rect x="156.25" y="200" width="15.625" height="16.666666666666668" fill="hsla(210, 67.12820512820515%, 60.392156862745104%, 1)" id="tozprwc25y"></rect><rect x="171.875" y="200" width="15.625" height="16.666666666666668" fill="hsla(210, 67.30256410256412%, 64.39215686274511%, 1)" id="mcrnidspgun"></rect><rect x="187.5" y="200" width="15.625" height="16.666666666666668" fill="hsla(210, 67.4769230769231%, 68.39215686274511%, 1)" id="znh4e1g8j5n"></rect><rect x="203.125" y="200" width="15.625" height="16.666666666666668" fill="hsla(210, 67.65128205128208%, 72.39215686274511%, 1)" id="7nmg4xs765i"></rect><rect x="218.75" y="200" width="15.625" height="16.666666666666668" fill="hsla(210, 67.82564102564105%, 76.3921568627451%, 1)" id="gnhevhwh5ne"></rect><rect x="234.375" y="200" width="15.625" height="16.666666666666668" fill="hsla(210, 68.00000000000003%, 80.3921568627451%, 1)" id="uox52qrsoeq"></rect><rect x="0" y="50" width="15.625" height="16.666666666666668" fill="hsla(0, 100%, 50%, 1)" id="l5gjsnru9t"></rect><rect x="15.625" y="50" width="15.625" height="16.666666666666668" fill="hsla(16, 100%, 50%, 1)" id="2vpoppoywus"></rect><rect x="31.25" y="50" width="15.625" height="16.666666666666668" fill="hsla(32, 100%, 50%, 1)" id="bc486vazsk5"></rect><rect x="46.875" y="50" width="15.625" height="16.666666666666668" fill="hsla(48, 100%, 50%, 1)" id="p3clqeffkh"></rect><rect x="62.5" y="50" width="15.625" height="16.666666666666668" fill="hsla(64, 100%, 50%, 1)" id="9r2wq8ow6ke"></rect><rect x="78.125" y="50" width="15.625" height="16.666666666666668" fill="hsla(80, 100%, 50%, 1)" id="fxqcf3i0clb"></rect><rect x="93.75" y="50" width="15.625" height="16.666666666666668" fill="hsla(96, 100%, 50%, 1)" id="vn4ducxho0r"></rect><rect x="109.375" y="50" width="15.625" height="16.666666666666668" fill="hsla(112, 100%, 50%, 1)" id="cchae29ktn9"></rect><rect x="125" y="50" width="15.625" height="16.666666666666668" fill="hsla(128, 100%, 50%, 1)" id="4c4snyupgfw"></rect><rect x="140.625" y="50" width="15.625" height="16.666666666666668" fill="hsla(144, 100%, 50%, 1)" id="4ymbhbd4ou5"></rect><rect x="156.25" y="50" width="15.625" height="16.666666666666668" fill="hsla(160, 100%, 50%, 1)" id="ds8ozlaqer8"></rect><rect x="171.875" y="50" width="15.625" height="16.666666666666668" fill="hsla(176, 100%, 50%, 1)" id="7xbikjnpha"></rect><rect x="187.5" y="50" width="15.625" height="16.666666666666668" fill="hsla(192, 100%, 50%, 1)" id="krffe4tbg5"></rect><rect x="203.125" y="50" width="15.625" height="16.666666666666668" fill="hsla(208, 100%, 50%, 1)" id="0nxim9nkp9dd"></rect><rect x="218.75" y="50" width="15.625" height="16.666666666666668" fill="hsla(224, 100%, 50%, 1)" id="aazb9ahnfmg"></rect><rect x="234.375" y="50" width="15.625" height="16.666666666666668" fill="hsla(240, 100%, 50%, 1)" id="5mnhuioyow"></rect><rect x="0" y="133.33333333333334" width="15.625" height="16.666666666666668" fill="hsla(0, 100%, 50%, 1)" id="b170ijp26ur"></rect><rect x="15.625" y="133.33333333333334" width="15.625" height="16.666666666666668" fill="hsla(8, 100%, 50%, 1)" id="7at68yfvirf"></rect><rect x="31.25" y="133.33333333333334" width="15.625" height="16.666666666666668" fill="hsla(16, 100%, 50%, 1)" id="v5bz0f9sq2"></rect><rect x="46.875" y="133.33333333333334" width="15.625" height="16.666666666666668" fill="hsla(24, 100%, 50%, 1)" id="e95u49knhe"></rect><rect x="62.5" y="133.33333333333334" width="15.625" height="16.666666666666668" fill="hsla(32, 100%, 50%, 1)" id="w07dts89wq"></rect><rect x="78.125" y="133.33333333333334" width="15.625" height="16.666666666666668" fill="hsla(40, 100%, 50%, 1)" id="u9hyt2nff39"></rect><rect x="93.75" y="133.33333333333334" width="15.625" height="16.666666666666668" fill="hsla(48, 100%, 50%, 1)" id="rodaw7hdjr"></rect><rect x="109.375" y="133.33333333333334" width="15.625" height="16.666666666666668" fill="hsla(56, 100%, 50%, 1)" id="65qdmb3blp8"></rect><rect x="125" y="133.33333333333334" width="15.625" height="16.666666666666668" fill="hsla(64, 100%, 50%, 1)" id="l31208cbzt"></rect><rect x="140.625" y="133.33333333333334" width="15.625" height="16.666666666666668" fill="hsla(72, 100%, 50%, 1)" id="4rp5tauahp7"></rect><rect x="156.25" y="133.33333333333334" width="15.625" height="16.666666666666668" fill="hsla(80, 100%, 50%, 1)" id="76lb9h2w609"></rect><rect x="171.875" y="133.33333333333334" width="15.625" height="16.666666666666668" fill="hsla(88, 100%, 50%, 1)" id="eeyqugrcyr"></rect><rect x="187.5" y="133.33333333333334" width="15.625" height="16.666666666666668" fill="hsla(96, 100%, 50%, 1)" id="bnprz2giddm"></rect><rect x="203.125" y="133.33333333333334" width="15.625" height="16.666666666666668" fill="hsla(104, 100%, 50%, 1)" id="tsgp0m6pfhp"></rect><rect x="218.75" y="133.33333333333334" width="15.625" height="16.666666666666668" fill="hsla(112, 100%, 50%, 1)" id="qjeoz21h5t"></rect><rect x="234.375" y="133.33333333333334" width="15.625" height="16.666666666666668" fill="hsla(120, 100%, 50%, 1)" id="7vqghfbmkq9"></rect><rect x="0" y="216.66666666666669" width="15.625" height="16.666666666666668" fill="hsla(210, 65.3846153846154%, 20.392156862745097%, 1)" id="bzhfbqp6666"></rect><rect x="15.625" y="216.66666666666669" width="15.625" height="16.666666666666668" fill="hsla(210, 65.55897435897438%, 24.3921568627451%, 1)" id="10f26h222dv"></rect><rect x="31.25" y="216.66666666666669" width="15.625" height="16.666666666666668" fill="hsla(210, 65.73333333333335%, 28.3921568627451%, 1)" id="ev5qqv0ox3n"></rect><rect x="46.875" y="216.66666666666669" width="15.625" height="16.666666666666668" fill="hsla(210, 65.90769230769233%, 32.392156862745104%, 1)" id="4c5e9ytvpmt"></rect><rect x="62.5" y="216.66666666666669" width="15.625" height="16.666666666666668" fill="hsla(210, 66.0820512820513%, 36.392156862745104%, 1)" id="ipqy7gsqt68"></rect><rect x="78.125" y="216.66666666666669" width="15.625" height="16.666666666666668" fill="hsla(210, 66.25641025641028%, 40.3921568627451%, 1)" id="x4olxyu0nfm"></rect><rect x="93.75" y="216.66666666666669" width="15.625" height="16.666666666666668" fill="hsla(210, 66.43076923076924%, 44.392156862745104%, 1)" id="akbtpr8io1v"></rect><rect x="109.375" y="216.66666666666669" width="15.625" height="16.666666666666668" fill="hsla(210, 66.60512820512822%, 48.392156862745104%, 1)" id="hrvjmw25ngp"></rect><rect x="125" y="216.66666666666669" width="15.625" height="16.666666666666668" fill="hsla(210, 66.77948717948719%, 52.3921568627451%, 1)" id="ruxuz3a19qh"></rect><rect x="140.625" y="216.66666666666669" width="15.625" height="16.666666666666668" fill="hsla(210, 66.95384615384617%, 56.392156862745104%, 1)" id="y45ri5anfvp"></rect><rect x="156.25" y="216.66666666666669" width="15.625" height="16.666666666666668" fill="hsla(210, 67.12820512820515%, 60.392156862745104%, 1)" id="rwdhwnwp5ph"></rect><rect x="171.875" y="216.66666666666669" width="15.625" height="16.666666666666668" fill="hsla(210, 67.30256410256412%, 64.39215686274511%, 1)" id="7b0isx8xf6n"></rect><rect x="187.5" y="216.66666666666669" width="15.625" height="16.666666666666668" fill="hsla(210, 67.4769230769231%, 68.39215686274511%, 1)" id="d5jxghg3rbg"></rect><rect x="203.125" y="216.66666666666669" width="15.625" height="16.666666666666668" fill="hsla(210, 67.65128205128208%, 72.39215686274511%, 1)" id="90lmqm2w1ww"></rect><rect x="218.75" y="216.66666666666669" width="15.625" height="16.666666666666668" fill="hsla(210, 67.82564102564105%, 76.3921568627451%, 1)" id="9w2h97cbxl"></rect><rect x="234.375" y="216.66666666666669" width="15.625" height="16.666666666666668" fill="hsla(210, 68.00000000000003%, 80.3921568627451%, 1)" id="tieebk1dmv"></rect><rect x="0" y="66.66666666666667" width="15.625" height="16.666666666666668" fill="hsla(0, 100%, 50%, 1)" id="bhqthvx38gh"></rect><rect x="15.625" y="66.66666666666667" width="15.625" height="16.666666666666668" fill="hsla(352, 100%, 50%, 1)" id="io81mfw78"></rect><rect x="31.25" y="66.66666666666667" width="15.625" height="16.666666666666668" fill="hsla(344, 100%, 50%, 1)" id="r2y48t4v5yg"></rect><rect x="46.875" y="66.66666666666667" width="15.625" height="16.666666666666668" fill="hsla(336, 100%, 50%, 1)" id="mu0dt3ijoks"></rect><rect x="62.5" y="66.66666666666667" width="15.625" height="16.666666666666668" fill="hsla(328, 100%, 50%, 1)" id="k8imdku1ccn"></rect><rect x="78.125" y="66.66666666666667" width="15.625" height="16.666666666666668" fill="hsla(320, 100%, 50%, 1)" id="cycfl7cq7re"></rect><rect x="93.75" y="66.66666666666667" width="15.625" height="16.666666666666668" fill="hsla(312, 100%, 50%, 1)" id="8ir7upith2a"></rect><rect x="109.375" y="66.66666666666667" width="15.625" height="16.666666666666668" fill="hsla(304, 100%, 50%, 1)" id="dkzfbsfkekr"></rect><rect x="125" y="66.66666666666667" width="15.625" height="16.666666666666668" fill="hsla(296, 100%, 50%, 1)" id="n3hsy6s59oc"></rect><rect x="140.625" y="66.66666666666667" width="15.625" height="16.666666666666668" fill="hsla(288, 100%, 50%, 1)" id="bju82k37t5a"></rect><rect x="156.25" y="66.66666666666667" width="15.625" height="16.666666666666668" fill="hsla(280, 100%, 50%, 1)" id="u9numt6cxqn"></rect><rect x="171.875" y="66.66666666666667" width="15.625" height="16.666666666666668" fill="hsla(272, 100%, 50%, 1)" id="ht5z07wtnxo"></rect><rect x="187.5" y="66.66666666666667" width="15.625" height="16.666666666666668" fill="hsla(264, 100%, 50%, 1)" id="gffk1n1x0pp"></rect><rect x="203.125" y="66.66666666666667" width="15.625" height="16.666666666666668" fill="hsla(256, 100%, 50%, 1)" id="zas983bpc6a"></rect><rect x="218.75" y="66.66666666666667" width="15.625" height="16.666666666666668" fill="hsla(248, 100%, 50%, 1)" id="ek69dthrwfd"></rect><rect x="234.375" y="66.66666666666667" width="15.625" height="16.666666666666668" fill="hsla(240, 100%, 50%, 1)" id="9alpiooyw8c"></rect><rect x="0" y="150" width="15.625" height="16.666666666666668" fill="hsla(0, 100%, 50%, 1)" id="bbsirzt2jh"></rect><rect x="15.625" y="150" width="15.625" height="16.666666666666668" fill="hsla(344, 100%, 50%, 1)" id="nlsp0dhj0id"></rect><rect x="31.25" y="150" width="15.625" height="16.666666666666668" fill="hsla(328, 100%, 50%, 1)" id="kes21ymqjla"></rect><rect x="46.875" y="150" width="15.625" height="16.666666666666668" fill="hsla(312, 100%, 50%, 1)" id="xgq3isl6se"></rect><rect x="62.5" y="150" width="15.625" height="16.666666666666668" fill="hsla(296, 100%, 50%, 1)" id="0qs2b5uk6ze"></rect><rect x="78.125" y="150" width="15.625" height="16.666666666666668" fill="hsla(280, 100%, 50%, 1)" id="td54bg8h6ch"></rect><rect x="93.75" y="150" width="15.625" height="16.666666666666668" fill="hsla(264, 100%, 50%, 1)" id="wpma8l0uep9"></rect><rect x="109.375" y="150" width="15.625" height="16.666666666666668" fill="hsla(248, 100%, 50%, 1)" id="2q6bn7606qf"></rect><rect x="125" y="150" width="15.625" height="16.666666666666668" fill="hsla(232, 100%, 50%, 1)" id="ysbjwnwud4b"></rect><rect x="140.625" y="150" width="15.625" height="16.666666666666668" fill="hsla(216, 100%, 50%, 1)" id="mwpxf90ney8"></rect><rect x="156.25" y="150" width="15.625" height="16.666666666666668" fill="hsla(200, 100%, 50%, 1)" id="ej59nxenfy6"></rect><rect x="171.875" y="150" width="15.625" height="16.666666666666668" fill="hsla(184, 100%, 50%, 1)" id="ujyi7teq56"></rect><rect x="187.5" y="150" width="15.625" height="16.666666666666668" fill="hsla(168, 100%, 50%, 1)" id="vlamkacqs2"></rect><rect x="203.125" y="150" width="15.625" height="16.666666666666668" fill="hsla(152, 100%, 50%, 1)" id="sjpo2gu520g"></rect><rect x="218.75" y="150" width="15.625" height="16.666666666666668" fill="hsla(136, 100%, 50%, 1)" id="8u71tavj1ic"></rect><rect x="234.375" y="150" width="15.625" height="16.666666666666668" fill="hsla(120, 100%, 50%, 1)" id="p30g516oqsp"></rect><rect x="0" y="233.33333333333334" width="15.625" height="16.666666666666668" fill="hsla(210, 65.3846153846154%, 20.392156862745097%, 1)" id="cbcn67uvior"></rect><rect x="15.625" y="233.33333333333334" width="15.625" height="16.666666666666668" fill="hsla(210, 65.55897435897438%, 24.3921568627451%, 1)" id="kvo330einme"></rect><rect x="31.25" y="233.33333333333334" width="15.625" height="16.666666666666668" fill="hsla(210, 65.73333333333335%, 28.3921568627451%, 1)" id="58t9z93ls2i"></rect><rect x="46.875" y="233.33333333333334" width="15.625" height="16.666666666666668" fill="hsla(210, 65.90769230769233%, 32.392156862745104%, 1)" id="usjatxljuu"></rect><rect x="62.5" y="233.33333333333334" width="15.625" height="16.666666666666668" fill="hsla(210, 66.0820512820513%, 36.392156862745104%, 1)" id="5zqk0tpq4uk"></rect><rect x="78.125" y="233.33333333333334" width="15.625" height="16.666666666666668" fill="hsla(210, 66.25641025641028%, 40.3921568627451%, 1)" id="dzd53d7b2dc"></rect><rect x="93.75" y="233.33333333333334" width="15.625" height="16.666666666666668" fill="hsla(210, 66.43076923076924%, 44.392156862745104%, 1)" id="hm0a904k329"></rect><rect x="109.375" y="233.33333333333334" width="15.625" height="16.666666666666668" fill="hsla(210, 66.60512820512822%, 48.392156862745104%, 1)" id="bazwi72eqa"></rect><rect x="125" y="233.33333333333334" width="15.625" height="16.666666666666668" fill="hsla(210, 66.77948717948719%, 52.3921568627451%, 1)" id="6eybh84to12"></rect><rect x="140.625" y="233.33333333333334" width="15.625" height="16.666666666666668" fill="hsla(210, 66.95384615384617%, 56.392156862745104%, 1)" id="6i64zosi7sv"></rect><rect x="156.25" y="233.33333333333334" width="15.625" height="16.666666666666668" fill="hsla(210, 67.12820512820515%, 60.392156862745104%, 1)" id="1rusebtjhmj"></rect><rect x="171.875" y="233.33333333333334" width="15.625" height="16.666666666666668" fill="hsla(210, 67.30256410256412%, 64.39215686274511%, 1)" id="m2005zpepbg"></rect><rect x="187.5" y="233.33333333333334" width="15.625" height="16.666666666666668" fill="hsla(210, 67.4769230769231%, 68.39215686274511%, 1)" id="4b2elfykwa4"></rect><rect x="203.125" y="233.33333333333334" width="15.625" height="16.666666666666668" fill="hsla(210, 67.65128205128208%, 72.39215686274511%, 1)" id="q0o16y7i8j"></rect><rect x="218.75" y="233.33333333333334" width="15.625" height="16.666666666666668" fill="hsla(210, 67.82564102564105%, 76.3921568627451%, 1)" id="ctdtxpj9nq"></rect><rect x="234.375" y="233.33333333333334" width="15.625" height="16.666666666666668" fill="hsla(210, 68.00000000000003%, 80.3921568627451%, 1)" id="mnczvtojobp"></rect></svg>