<svg id="root" width="250px" height="250px" xmlns="http://www.w3.org/2000/svg" xlink="http://www.w3.org/1999/xlink" version="1.1"><defs id="4b3jxs4ocnp"></defs><rect x="0" y="0" width="15.625" height="16.666666666666668" fill="rgba(255, 0, 0, 1)" id="ldksdpidvmp"></rect><rect x="15.625" y="0" width="15.625" height="16.666666666666668" fill="rgba(238, 0, 17, 1)" id="35mvkrlw77c"></rect><rect x="31.25" y="0" width="15.625" height="16.666666666666668" fill="rgba(221, 0, 34, 1)" id="kdrncw9fq3s"></rect><rect x="46.875" y="0" width="15.625" height="16.666666666666668" fill="rgba(204, 0, 51, 1)" id="xm62rji87o"></rect><rect x="62.5" y="0" width="15.625" height="16.666666666666668" fill="rgba(187, 0, 68, 1)" id="gdnol0gy5kp"></rect><rect x="78.125" y="0" width="15.625" height="16.666666666666668" fill="rgba(170, 0, 85, 1)" id="z26nn4tvkk"></rect><rect x="93.75" y="0" width="15.625" height="16.666666666666668" fill="rgba(153, 0, 102, 1)" id="898hwla54ai"></rect><rect x="109.375" y="0" width="15.625" height="16.666666666666668" fill="rgba(136, 0, 119, 1)" id="0p80ntmrtqd"></rect><rect x="125" y="0" width="15.625" height="16.666666666666668" fill="rgba(119, 0, 136, 1)" id="wagy89huyi8"></rect><rect x="140.625" y="0" width="15.625" height="16.666666666666668" fill="rgba(102, 0, 153, 1)" id="1lyu0th7ot1"></rect><rect x="156.25" y="0" width="15.625" height="16.666666666666668" fill="rgba(85, 0, 170, 1)" id="of6t3j9m12m"></rect><rect x="171.875" y="0" width="15.625" height="16.666666666666668" fill="rgba(68, 0, 187, 1)" id="sz6zeuxvfs"></rect><rect x="187.5" y="0" width="15.625" height="16.666666666666668" fill="rgba(51, 0, 204, 1)" id="zppda7wbrm"></rect><rect x="203.125" y="0" width="15.625" height="16.666666666666668" fill="rgba(34, 0, 221, 1)" id="8ougcnrfp7r"></rect><rect x="218.75" y="0" width="15.625" height="16.666666666666668" fill="rgba(17, 0, 238, 1)" id="2314kim4njp"></rect><rect x="234.375" y="0" width="15.625" height="16.666666666666668" fill="rgba(0, 0, 255, 1)" id="bte3p5vx9di"></rect><rect x="0" y="83.33333333333334" width="15.625" height="16.666666666666668" fill="rgba(255, 0, 0, 1)" id="nciwx9p0lrn"></rect><rect x="15.625" y="83.33333333333334" width="15.625" height="16.666666666666668" fill="rgba(238, 17, 0, 1)" id="qgou6kl812f"></rect><rect x="31.25" y="83.33333333333334" width="15.625" height="16.666666666666668" fill="rgba(221, 34, 0, 1)" id="e9eti1k4a1"></rect><rect x="46.875" y="83.33333333333334" width="15.625" height="16.666666666666668" fill="rgba(204, 51, 0, 1)" id="erx1b2yp2rf"></rect><rect x="62.5" y="83.33333333333334" width="15.625" height="16.666666666666668" fill="rgba(187, 68, 0, 1)" id="mqlmwxqrc1q"></rect><rect x="78.125" y="83.33333333333334" width="15.625" height="16.666666666666668" fill="rgba(170, 85, 0, 1)" id="8khxadi69gd"></rect><rect x="93.75" y="83.33333333333334" width="15.625" height="16.666666666666668" fill="rgba(153, 102, 0, 1)" id="mrrjakxe0g8"></rect><rect x="109.375" y="83.33333333333334" width="15.625" height="16.666666666666668" fill="rgba(136, 119, 0, 1)" id="yobk1n9z5al"></rect><rect x="125" y="83.33333333333334" width="15.625" height="16.666666666666668" fill="rgba(119, 136, 0, 1)" id="3zjzdry51i5"></rect><rect x="140.625" y="83.33333333333334" width="15.625" height="16.666666666666668" fill="rgba(102, 153, 0, 1)" id="iy7egr20syf"></rect><rect x="156.25" y="83.33333333333334" width="15.625" height="16.666666666666668" fill="rgba(85, 170, 0, 1)" id="h9c7suf4ad7"></rect><rect x="171.875" y="83.33333333333334" width="15.625" height="16.666666666666668" fill="rgba(68, 187, 0, 1)" id="2vwttys3hfb"></rect><rect x="187.5" y="83.33333333333334" width="15.625" height="16.666666666666668" fill="rgba(51, 204, 0, 1)" id="xurudlp4i7"></rect><rect x="203.125" y="83.33333333333334" width="15.625" height="16.666666666666668" fill="rgba(34, 221, 0, 1)" id="36xa4ua8yg4"></rect><rect x="218.75" y="83.33333333333334" width="15.625" height="16.666666666666668" fill="rgba(17, 238, 0, 1)" id="uou0nkqab9n"></rect><rect x="234.375" y="83.33333333333334" width="15.625" height="16.666666666666668" fill="rgba(0, 255, 0, 1)" id="cczi6fmi689"></rect><rect x="0" y="166.66666666666669" width="15.625" height="16.666666666666668" fill="rgba(18, 52, 86, 1)" id="kubtlntj6oi"></rect><rect x="15.625" y="166.66666666666669" width="15.625" height="16.666666666666668" fill="rgba(28, 62, 96, 1)" id="o3mqbna1vek"></rect><rect x="31.25" y="166.66666666666669" width="15.625" height="16.666666666666668" fill="rgba(38, 72, 106, 1)" id="3udr5p34kxd"></rect><rect x="46.875" y="166.66666666666669" width="15.625" height="16.666666666666668" fill="rgba(49, 83, 117, 1)" id="lqyomxzjo3c"></rect><rect x="62.5" y="166.66666666666669" width="15.625" height="16.666666666666668" fill="rgba(59, 93, 127, 1)" id="c3sjnp0hdgl"></rect><rect x="78.125" y="166.66666666666669" width="15.625" height="16.666666666666668" fill="rgba(69, 103, 137, 1)" id="zl4n3l5bvno"></rect><rect x="93.75" y="166.66666666666669" width="15.625" height="16.666666666666668" fill="rgba(79, 113, 147, 1)" id="udmqkbrwyg"></rect><rect x="109.375" y="166.66666666666669" width="15.625" height="16.666666666666668" fill="rgba(89, 123, 157, 1)" id="cah70thr3zt"></rect><rect x="125" y="166.66666666666669" width="15.625" height="16.666666666666668" fill="rgba(100, 134, 168, 1)" id="6yj486t311o"></rect><rect x="140.625" y="166.66666666666669" width="15.625" height="16.666666666666668" fill="rgba(110, 144, 178, 1)" id="1slh2hgl2f5"></rect><rect x="156.25" y="166.66666666666669" width="15.625" height="16.666666666666668" fill="rgba(120, 154, 188, 1)" id="s3g6hg5qljl"></rect><rect x="171.875" y="166.66666666666669" width="15.625" height="16.666666666666668" fill="rgba(130, 164, 198, 1)" id="xdgok1r1ejn"></rect><rect x="187.5" y="166.66666666666669" width="15.625" height="16.666666666666668" fill="rgba(140, 174, 208, 1)" id="gksxltaueao"></rect><rect x="203.125" y="166.66666666666669" width="15.625" height="16.666666666666668" fill="rgba(151, 185, 219, 1)" id="jsisuol4em"></rect><rect x="218.75" y="166.66666666666669" width="15.625" height="16.666666666666668" fill="rgba(161, 195, 229, 1)" id="qs7xl95djgi"></rect><rect x="234.375" y="166.66666666666669" width="15.625" height="16.666666666666668" fill="rgba(171, 205, 239, 1)" id="bz5firxq8i"></rect><rect x="0" y="16.666666666666668" width="15.625" height="16.666666666666668" fill="hsla(0, 100%, 50%, 1)" id="gjp97sfdwpo"></rect><rect x="15.625" y="16.666666666666668" width="15.625" height="16.666666666666668" fill="hsla(352, 100%, 50%, 1)" id="whgdlmqqerl"></rect><rect x="31.25" y="16.666666666666668" width="15.625" height="16.666666666666668" fill="hsla(344, 100%, 50%, 1)" id="b4mtauyozdo"></rect><rect x="46.875" y="16.666666666666668" width="15.625" height="16.666666666666668" fill="hsla(336, 100%, 50%, 1)" id="xxvm8hlisu"></rect><rect x="62.5" y="16.666666666666668" width="15.625" height="16.666666666666668" fill="hsla(328, 100%, 50%, 1)" id="hygnxs3xtl"></rect><rect x="78.125" y="16.666666666666668" width="15.625" height="16.666666666666668" fill="hsla(320, 100%, 50%, 1)" id="g8cf5osiuml"></rect><rect x="93.75" y="16.666666666666668" width="15.625" height="16.666666666666668" fill="hsla(312, 100%, 50%, 1)" id="qawowjpxmxj"></rect><rect x="109.375" y="16.666666666666668" width="15.625" height="16.666666666666668" fill="hsla(304, 100%, 50%, 1)" id="ijjsi1vt5ip"></rect><rect x="125" y="16.666666666666668" width="15.625" height="16.666666666666668" fill="hsla(296, 100%, 50%, 1)" id="gr87abu2tm"></rect><rect x="140.625" y="16.666666666666668" width="15.625" height="16.666666666666668" fill="hsla(288, 100%, 50%, 1)" id="b0sgzr1jene"></rect><rect x="156.25" y="16.666666666666668" width="15.625" height="16.666666666666668" fill="hsla(280, 100%, 50%, 1)" id="j1ae0h4hbxf"></rect><rect x="171.875" y="16.666666666666668" width="15.625" height="16.666666666666668" fill="hsla(272, 100%, 50%, 1)" id="s3w8mon7m29"></rect><rect x="187.5" y="16.666666666666668" width="15.625" height="16.666666666666668" fill="hsla(264, 100%, 50%, 1)" id="e1d1s4yegs"></rect><rect x="203.125" y="16.666666666666668" width="15.625" height="16.666666666666668" fill="hsla(256, 100%, 50%, 1)" id="grygknmarpg"></rect><rect x="218.75" y="16.666666666666668" width="15.625" height="16.666666666666668" fill="hsla(248, 100%, 50%, 1)" id="nt9bbxht3rj"></rect><rect x="234.375" y="16.666666666666668" width="15.625" height="16.666666666666668" fill="hsla(240, 100%, 50%, 1)" id="8ybb1jszgzo"></rect><rect x="0" y="100" width="15.625" height="16.666666666666668" fill="hsla(0, 100%, 50%, 1)" id="guxet8gbi16"></rect><rect x="15.625" y="100" width="15.625" height="16.666666666666668" fill="hsla(8, 100%, 50%, 1)" id="9q89nq395c"></rect><rect x="31.25" y="100" width="15.625" height="16.666666666666668" fill="hsla(16, 100%, 50%, 1)" id="u8rjg0dner"></rect><rect x="46.875" y="100" width="15.625" height="16.666666666666668" fill="hsla(24, 100%, 50%, 1)" id="v0tu7y56nxo"></rect><rect x="62.5" y="100" width="15.625" height="16.666666666666668" fill="hsla(32, 100%, 50%, 1)" id="urgwex5lh4"></rect><rect x="78.125" y="100" width="15.625" height="16.666666666666668" fill="hsla(40, 100%, 50%, 1)" id="f839rjis8ha"></rect><rect x="93.75" y="100" width="15.625" height="16.666666666666668" fill="hsla(48, 100%, 50%, 1)" id="8t28ti7dr6v"></rect><rect x="109.375" y="100" width="15.625" height="16.666666666666668" fill="hsla(56, 100%, 50%, 1)" id="v1v7dilevb"></rect><rect x="125" y="100" width="15.625" height="16.666666666666668" fill="hsla(64, 100%, 50%, 1)" id="q3lv6nhsdig"></rect><rect x="140.625" y="100" width="15.625" height="16.666666666666668" fill="hsla(72, 100%, 50%, 1)" id="8ur7hb6fm9"></rect><rect x="156.25" y="100" width="15.625" height="16.666666666666668" fill="hsla(80, 100%, 50%, 1)" id="btict4ox7bh"></rect><rect x="171.875" y="100" width="15.625" height="16.666666666666668" fill="hsla(88, 100%, 50%, 1)" id="zkgp22yq2t"></rect><rect x="187.5" y="100" width="15.625" height="16.666666666666668" fill="hsla(96, 100%, 50%, 1)" id="77fvnlh1zzw"></rect><rect x="203.125" y="100" width="15.625" height="16.666666666666668" fill="hsla(104, 100%, 50%, 1)" id="fc1sfa44tgq"></rect><rect x="218.75" y="100" width="15.625" height="16.666666666666668" fill="hsla(112, 100%, 50%, 1)" id="gehwojwun1i"></rect><rect x="234.375" y="100" width="15.625" height="16.666666666666668" fill="hsla(120, 100%, 50%, 1)" id="4rehkns3pe"></rect><rect x="0" y="183.33333333333334" width="15.625" height="16.666666666666668" fill="hsla(210, 65.3846153846154%, 20.392156862745097%, 1)" id="idh8omoekyn"></rect><rect x="15.625" y="183.33333333333334" width="15.625" height="16.666666666666668" fill="hsla(210, 65.55897435897438%, 24.3921568627451%, 1)" id="5qrh2pnqr28"></rect><rect x="31.25" y="183.33333333333334" width="15.625" height="16.666666666666668" fill="hsla(210, 65.73333333333335%, 28.3921568627451%, 1)" id="aqae5keebw"></rect><rect x="46.875" y="183.33333333333334" width="15.625" height="16.666666666666668" fill="hsla(210, 65.90769230769233%, 32.392156862745104%, 1)" id="tpbv85lnrkm"></rect><rect x="62.5" y="183.33333333333334" width="15.625" height="16.666666666666668" fill="hsla(210, 66.0820512820513%, 36.392156862745104%, 1)" id="liekz52lzq"></rect><rect x="78.125" y="183.33333333333334" width="15.625" height="16.666666666666668" fill="hsla(210, 66.25641025641028%, 40.3921568627451%, 1)" id="h7spd1selqs"></rect><rect x="93.75" y="183.33333333333334" width="15.625" height="16.666666666666668" fill="hsla(210, 66.43076923076924%, 44.392156862745104%, 1)" id="rnmfumodpq"></rect><rect x="109.375" y="183.33333333333334" width="15.625" height="16.666666666666668" fill="hsla(210, 66.60512820512822%, 48.392156862745104%, 1)" id="9nlmymqzic"></rect><rect x="125" y="183.33333333333334" width="15.625" height="16.666666666666668" fill="hsla(210, 66.77948717948719%, 52.3921568627451%, 1)" id="eqcejogloeg"></rect><rect x="140.625" y="183.33333333333334" width="15.625" height="16.666666666666668" fill="hsla(210, 66.95384615384617%, 56.392156862745104%, 1)" id="rv58l8l3im7"></rect><rect x="156.25" y="183.33333333333334" width="15.625" height="16.666666666666668" fill="hsla(210, 67.12820512820515%, 60.392156862745104%, 1)" id="3lywna4zqbj"></rect><rect x="171.875" y="183.33333333333334" width="15.625" height="16.666666666666668" fill="hsla(210, 67.30256410256412%, 64.39215686274511%, 1)" id="j1bbffig7i"></rect><rect x="187.5" y="183.33333333333334" width="15.625" height="16.666666666666668" fill="hsla(210, 67.4769230769231%, 68.39215686274511%, 1)" id="obgm0yl8reo"></rect><rect x="203.125" y="183.33333333333334" width="15.625" height="16.666666666666668" fill="hsla(210, 67.65128205128208%, 72.39215686274511%, 1)" id="ot2huziyzwr"></rect><rect x="218.75" y="183.33333333333334" width="15.625" height="16.666666666666668" fill="hsla(210, 67.82564102564105%, 76.3921568627451%, 1)" id="rt94s3i0c7"></rect><rect x="234.375" y="183.33333333333334" width="15.625" height="16.666666666666668" fill="hsla(210, 68.00000000000003%, 80.3921568627451%, 1)" id="786fab72vzs"></rect><rect x="0" y="33.333333333333336" width="15.625" height="16.666666666666668" fill="hsla(0, 100%, 50%, 1)" id="s69x3xbcgq"></rect><rect x="15.625" y="33.333333333333336" width="15.625" height="16.666666666666668" fill="hsla(16, 100%, 50%, 1)" id="o75ci79cif"></rect><rect x="31.25" y="33.333333333333336" width="15.625" height="16.666666666666668" fill="hsla(32, 100%, 50%, 1)" id="pmn79w5fw9k"></rect><rect x="46.875" y="33.333333333333336" width="15.625" height="16.666666666666668" fill="hsla(48, 100%, 50%, 1)" id="gss2a1fvbtj"></rect><rect x="62.5" y="33.333333333333336" width="15.625" height="16.666666666666668" fill="hsla(64, 100%, 50%, 1)" id="6355rd1k2d6"></rect><rect x="78.125" y="33.333333333333336" width="15.625" height="16.666666666666668" fill="hsla(80, 100%, 50%, 1)" id="iw3e5qt2zw"></rect><rect x="93.75" y="33.333333333333336" width="15.625" height="16.666666666666668" fill="hsla(96, 100%, 50%, 1)" id="dc1vpcfm135"></rect><rect x="109.375" y="33.333333333333336" width="15.625" height="16.666666666666668" fill="hsla(112, 100%, 50%, 1)" id="1aedgum70b5"></rect><rect x="125" y="33.333333333333336" width="15.625" height="16.666666666666668" fill="hsla(128, 100%, 50%, 1)" id="5gextun3c0s"></rect><rect x="140.625" y="33.333333333333336" width="15.625" height="16.666666666666668" fill="hsla(144, 100%, 50%, 1)" id="a6g9nwnn8vi"></rect><rect x="156.25" y="33.333333333333336" width="15.625" height="16.666666666666668" fill="hsla(160, 100%, 50%, 1)" id="z3tdxpwizwh"></rect><rect x="171.875" y="33.333333333333336" width="15.625" height="16.666666666666668" fill="hsla(176, 100%, 50%, 1)" id="s9h8kbhffiq"></rect><rect x="187.5" y="33.333333333333336" width="15.625" height="16.666666666666668" fill="hsla(192, 100%, 50%, 1)" id="styhbihoknb"></rect><rect x="203.125" y="33.333333333333336" width="15.625" height="16.666666666666668" fill="hsla(208, 100%, 50%, 1)" id="6i7pdkd193j"></rect><rect x="218.75" y="33.333333333333336" width="15.625" height="16.666666666666668" fill="hsla(224, 100%, 50%, 1)" id="q3uacseil1h"></rect><rect x="234.375" y="33.333333333333336" width="15.625" height="16.666666666666668" fill="hsla(240, 100%, 50%, 1)" id="jib0ue39v3h"></rect><rect x="0" y="116.66666666666667" width="15.625" height="16.666666666666668" fill="hsla(0, 100%, 50%, 1)" id="fj7l8yveg98"></rect><rect x="15.625" y="116.66666666666667" width="15.625" height="16.666666666666668" fill="hsla(344, 100%, 50%, 1)" id="twh4ratjm7j"></rect><rect x="31.25" y="116.66666666666667" width="15.625" height="16.666666666666668" fill="hsla(328, 100%, 50%, 1)" id="o3hzyavxyx"></rect><rect x="46.875" y="116.66666666666667" width="15.625" height="16.666666666666668" fill="hsla(312, 100%, 50%, 1)" id="v4fq94dczma"></rect><rect x="62.5" y="116.66666666666667" width="15.625" height="16.666666666666668" fill="hsla(296, 100%, 50%, 1)" id="7xi8vyk63u6"></rect><rect x="78.125" y="116.66666666666667" width="15.625" height="16.666666666666668" fill="hsla(280, 100%, 50%, 1)" id="s26xn5o0als"></rect><rect x="93.75" y="116.66666666666667" width="15.625" height="16.666666666666668" fill="hsla(264, 100%, 50%, 1)" id="eaw8zg6zul"></rect><rect x="109.375" y="116.66666666666667" width="15.625" height="16.666666666666668" fill="hsla(248, 100%, 50%, 1)" id="oaepuwgz4q"></rect><rect x="125" y="116.66666666666667" width="15.625" height="16.666666666666668" fill="hsla(232, 100%, 50%, 1)" id="6237pj32nik"></rect><rect x="140.625" y="116.66666666666667" width="15.625" height="16.666666666666668" fill="hsla(216, 100%, 50%, 1)" id="mtifb154tbr"></rect><rect x="156.25" y="116.66666666666667" width="15.625" height="16.666666666666668" fill="hsla(200, 100%, 50%, 1)" id="2tvkztmlvw3"></rect><rect x="171.875" y="116.66666666666667" width="15.625" height="16.666666666666668" fill="hsla(184, 100%, 50%, 1)" id="r16mveblxa"></rect><rect x="187.5" y="116.66666666666667" width="15.625" height="16.666666666666668" fill="hsla(168, 100%, 50%, 1)" id="o26v889o2b"></rect><rect x="203.125" y="116.66666666666667" width="15.625" height="16.666666666666668" fill="hsla(152, 100%, 50%, 1)" id="way3zhy07hh"></rect><rect x="218.75" y="116.66666666666667" width="15.625" height="16.666666666666668" fill="hsla(136, 100%, 50%, 1)" id="5sqv4y05zsr"></rect><rect x="234.375" y="116.66666666666667" width="15.625" height="16.666666666666668" fill="hsla(120, 100%, 50%, 1)" id="d6wlqycnzo5"></rect><rect x="0" y="200" width="15.625" height="16.666666666666668" fill="hsla(210, 65.3846153846154%, 20.392156862745097%, 1)" id="utpw3he2scs"></rect><rect x="15.625" y="200" width="15.625" height="16.666666666666668" fill="hsla(210, 65.55897435897438%, 24.3921568627451%, 1)" id="wfm4upgh2u"></rect><rect x="31.25" y="200" width="15.625" height="16.666666666666668" fill="hsla(210, 65.73333333333335%, 28.3921568627451%, 1)" id="go8irdy0a76"></rect><rect x="46.875" y="200" width="15.625" height="16.666666666666668" fill="hsla(210, 65.90769230769233%, 32.392156862745104%, 1)" id="sxj2s5cv5im"></rect><rect x="62.5" y="200" width="15.625" height="16.666666666666668" fill="hsla(210, 66.0820512820513%, 36.392156862745104%, 1)" id="vnxshrotjvq"></rect><rect x="78.125" y="200" width="15.625" height="16.666666666666668" fill="hsla(210, 66.25641025641028%, 40.3921568627451%, 1)" id="2yabby7dxyc"></rect><rect x="93.75" y="200" width="15.625" height="16.666666666666668" fill="hsla(210, 66.43076923076924%, 44.392156862745104%, 1)" id="jmi91jyveso"></rect><rect x="109.375" y="200" width="15.625" height="16.666666666666668" fill="hsla(210, 66.60512820512822%, 48.392156862745104%, 1)" id="z8u9lmasv3"></rect><rect x="125" y="200" width="15.625" height="16.666666666666668" fill="hsla(210, 66.77948717948719%, 52.3921568627451%, 1)" id="zv7h3p2vq6"></rect><rect x="140.625" y="200" width="15.625" height="16.666666666666668" fill="hsla(210, 66.95384615384617%, 56.392156862745104%, 1)" id="1fk784mifsn"></rect><rect x="156.25" y="200" width="15.625" height="16.666666666666668" fill="hsla(210, 67.12820512820515%, 60.392156862745104%, 1)" id="r9fdt3kf9bk"></rect><rect x="171.875" y="200" width="15.625" height="16.666666666666668" fill="hsla(210, 67.30256410256412%, 64.39215686274511%, 1)" id="w9idu4pgg3l"></rect><rect x="187.5" y="200" width="15.625" height="16.666666666666668" fill="hsla(210, 67.4769230769231%, 68.39215686274511%, 1)" id="89t1bfcndtn"></rect><rect x="203.125" y="200" width="15.625" height="16.666666666666668" fill="hsla(210, 67.65128205128208%, 72.39215686274511%, 1)" id="r7efd7refm"></rect><rect x="218.75" y="200" width="15.625" height="16.666666666666668" fill="hsla(210, 67.82564102564105%, 76.3921568627451%, 1)" id="aqlxa27ey3"></rect><rect x="234.375" y="200" width="15.625" height="16.666666666666668" fill="hsla(210, 68.00000000000003%, 80.3921568627451%, 1)" id="d240l8zm08c"></rect><rect x="0" y="50" width="15.625" height="16.666666666666668" fill="hsla(0, 100%, 50%, 1)" id="9vn6qf7t0qs"></rect><rect x="15.625" y="50" width="15.625" height="16.666666666666668" fill="hsla(16, 100%, 50%, 1)" id="62ekcf77a9f"></rect><rect x="31.25" y="50" width="15.625" height="16.666666666666668" fill="hsla(32, 100%, 50%, 1)" id="f93awlxl65w"></rect><rect x="46.875" y="50" width="15.625" height="16.666666666666668" fill="hsla(48, 100%, 50%, 1)" id="03z5pkoqsm3m"></rect><rect x="62.5" y="50" width="15.625" height="16.666666666666668" fill="hsla(64, 100%, 50%, 1)" id="ofg2jf7lygg"></rect><rect x="78.125" y="50" width="15.625" height="16.666666666666668" fill="hsla(80, 100%, 50%, 1)" id="0y46tf88pdpa"></rect><rect x="93.75" y="50" width="15.625" height="16.666666666666668" fill="hsla(96, 100%, 50%, 1)" id="hj7e90681wb"></rect><rect x="109.375" y="50" width="15.625" height="16.666666666666668" fill="hsla(112, 100%, 50%, 1)" id="ijm62cxpgc"></rect><rect x="125" y="50" width="15.625" height="16.666666666666668" fill="hsla(128, 100%, 50%, 1)" id="840r5qv9vw5"></rect><rect x="140.625" y="50" width="15.625" height="16.666666666666668" fill="hsla(144, 100%, 50%, 1)" id="eoxwrbjrs58"></rect><rect x="156.25" y="50" width="15.625" height="16.666666666666668" fill="hsla(160, 100%, 50%, 1)" id="evp5ayybm4j"></rect><rect x="171.875" y="50" width="15.625" height="16.666666666666668" fill="hsla(176, 100%, 50%, 1)" id="hrjiosd4smb"></rect><rect x="187.5" y="50" width="15.625" height="16.666666666666668" fill="hsla(192, 100%, 50%, 1)" id="557khbv1tfk"></rect><rect x="203.125" y="50" width="15.625" height="16.666666666666668" fill="hsla(208, 100%, 50%, 1)" id="o7qmdoxofrg"></rect><rect x="218.75" y="50" width="15.625" height="16.666666666666668" fill="hsla(224, 100%, 50%, 1)" id="orylmty45x"></rect><rect x="234.375" y="50" width="15.625" height="16.666666666666668" fill="hsla(240, 100%, 50%, 1)" id="xxqx4d47nui"></rect><rect x="0" y="133.33333333333334" width="15.625" height="16.666666666666668" fill="hsla(0, 100%, 50%, 1)" id="i4thoa26xts"></rect><rect x="15.625" y="133.33333333333334" width="15.625" height="16.666666666666668" fill="hsla(8, 100%, 50%, 1)" id="hdumg1fc1fq"></rect><rect x="31.25" y="133.33333333333334" width="15.625" height="16.666666666666668" fill="hsla(16, 100%, 50%, 1)" id="81es5f8g6hf"></rect><rect x="46.875" y="133.33333333333334" width="15.625" height="16.666666666666668" fill="hsla(24, 100%, 50%, 1)" id="do771e5v836"></rect><rect x="62.5" y="133.33333333333334" width="15.625" height="16.666666666666668" fill="hsla(32, 100%, 50%, 1)" id="dxpe457w7un"></rect><rect x="78.125" y="133.33333333333334" width="15.625" height="16.666666666666668" fill="hsla(40, 100%, 50%, 1)" id="g191hlcevm"></rect><rect x="93.75" y="133.33333333333334" width="15.625" height="16.666666666666668" fill="hsla(48, 100%, 50%, 1)" id="30wdok4fqxi"></rect><rect x="109.375" y="133.33333333333334" width="15.625" height="16.666666666666668" fill="hsla(56, 100%, 50%, 1)" id="lsm3fx4c5a"></rect><rect x="125" y="133.33333333333334" width="15.625" height="16.666666666666668" fill="hsla(64, 100%, 50%, 1)" id="nyz9hm7ln7"></rect><rect x="140.625" y="133.33333333333334" width="15.625" height="16.666666666666668" fill="hsla(72, 100%, 50%, 1)" id="4hj1r6kxiq9"></rect><rect x="156.25" y="133.33333333333334" width="15.625" height="16.666666666666668" fill="hsla(80, 100%, 50%, 1)" id="dgtvpy06rfh"></rect><rect x="171.875" y="133.33333333333334" width="15.625" height="16.666666666666668" fill="hsla(88, 100%, 50%, 1)" id="e9enpjj3i5"></rect><rect x="187.5" y="133.33333333333334" width="15.625" height="16.666666666666668" fill="hsla(96, 100%, 50%, 1)" id="vn1g0z3t0jh"></rect><rect x="203.125" y="133.33333333333334" width="15.625" height="16.666666666666668" fill="hsla(104, 100%, 50%, 1)" id="pbtsx7gqjmd"></rect><rect x="218.75" y="133.33333333333334" width="15.625" height="16.666666666666668" fill="hsla(112, 100%, 50%, 1)" id="rc6qa4xiqab"></rect><rect x="234.375" y="133.33333333333334" width="15.625" height="16.666666666666668" fill="hsla(120, 100%, 50%, 1)" id="kclzn4p42sq"></rect><rect x="0" y="216.66666666666669" width="15.625" height="16.666666666666668" fill="hsla(210, 65.3846153846154%, 20.392156862745097%, 1)" id="gd8wa13z1mp"></rect><rect x="15.625" y="216.66666666666669" width="15.625" height="16.666666666666668" fill="hsla(210, 65.55897435897438%, 24.3921568627451%, 1)" id="b2lyjny916d"></rect><rect x="31.25" y="216.66666666666669" width="15.625" height="16.666666666666668" fill="hsla(210, 65.73333333333335%, 28.3921568627451%, 1)" id="htnwcgimes"></rect><rect x="46.875" y="216.66666666666669" width="15.625" height="16.666666666666668" fill="hsla(210, 65.90769230769233%, 32.392156862745104%, 1)" id="poymgjr5j4"></rect><rect x="62.5" y="216.66666666666669" width="15.625" height="16.666666666666668" fill="hsla(210, 66.0820512820513%, 36.392156862745104%, 1)" id="7ivrzio7veg"></rect><rect x="78.125" y="216.66666666666669" width="15.625" height="16.666666666666668" fill="hsla(210, 66.25641025641028%, 40.3921568627451%, 1)" id="0fwosirx9m87"></rect><rect x="93.75" y="216.66666666666669" width="15.625" height="16.666666666666668" fill="hsla(210, 66.43076923076924%, 44.392156862745104%, 1)" id="hmq2mwlln3"></rect><rect x="109.375" y="216.66666666666669" width="15.625" height="16.666666666666668" fill="hsla(210, 66.60512820512822%, 48.392156862745104%, 1)" id="7uepwu3lpj7"></rect><rect x="125" y="216.66666666666669" width="15.625" height="16.666666666666668" fill="hsla(210, 66.77948717948719%, 52.3921568627451%, 1)" id="l4hmvu3q3b7"></rect><rect x="140.625" y="216.66666666666669" width="15.625" height="16.666666666666668" fill="hsla(210, 66.95384615384617%, 56.392156862745104%, 1)" id="q57my6r2839"></rect><rect x="156.25" y="216.66666666666669" width="15.625" height="16.666666666666668" fill="hsla(210, 67.12820512820515%, 60.392156862745104%, 1)" id="75a9yh3gug3"></rect><rect x="171.875" y="216.66666666666669" width="15.625" height="16.666666666666668" fill="hsla(210, 67.30256410256412%, 64.39215686274511%, 1)" id="nqwxhugce5o"></rect><rect x="187.5" y="216.66666666666669" width="15.625" height="16.666666666666668" fill="hsla(210, 67.4769230769231%, 68.39215686274511%, 1)" id="6dvyq26tof4"></rect><rect x="203.125" y="216.66666666666669" width="15.625" height="16.666666666666668" fill="hsla(210, 67.65128205128208%, 72.39215686274511%, 1)" id="25fftaw52ej"></rect><rect x="218.75" y="216.66666666666669" width="15.625" height="16.666666666666668" fill="hsla(210, 67.82564102564105%, 76.3921568627451%, 1)" id="l3ia1tp44r"></rect><rect x="234.375" y="216.66666666666669" width="15.625" height="16.666666666666668" fill="hsla(210, 68.00000000000003%, 80.3921568627451%, 1)" id="gwx82dsziv"></rect><rect x="0" y="66.66666666666667" width="15.625" height="16.666666666666668" fill="hsla(0, 100%, 50%, 1)" id="6g5py8ww32"></rect><rect x="15.625" y="66.66666666666667" width="15.625" height="16.666666666666668" fill="hsla(352, 100%, 50%, 1)" id="70a3bhqikjc"></rect><rect x="31.25" y="66.66666666666667" width="15.625" height="16.666666666666668" fill="hsla(344, 100%, 50%, 1)" id="vybqyxcs40k"></rect><rect x="46.875" y="66.66666666666667" width="15.625" height="16.666666666666668" fill="hsla(336, 100%, 50%, 1)" id="2t37pqqs8xh"></rect><rect x="62.5" y="66.66666666666667" width="15.625" height="16.666666666666668" fill="hsla(328, 100%, 50%, 1)" id="fsx0djo5fxa"></rect><rect x="78.125" y="66.66666666666667" width="15.625" height="16.666666666666668" fill="hsla(320, 100%, 50%, 1)" id="xw2ezv3gj58"></rect><rect x="93.75" y="66.66666666666667" width="15.625" height="16.666666666666668" fill="hsla(312, 100%, 50%, 1)" id="6hnyea933i5"></rect><rect x="109.375" y="66.66666666666667" width="15.625" height="16.666666666666668" fill="hsla(304, 100%, 50%, 1)" id="3hp1xj1ph49"></rect><rect x="125" y="66.66666666666667" width="15.625" height="16.666666666666668" fill="hsla(296, 100%, 50%, 1)" id="eikix3f1tv7"></rect><rect x="140.625" y="66.66666666666667" width="15.625" height="16.666666666666668" fill="hsla(288, 100%, 50%, 1)" id="whyvccqmdzb"></rect><rect x="156.25" y="66.66666666666667" width="15.625" height="16.666666666666668" fill="hsla(280, 100%, 50%, 1)" id="dyf1ipsr7l7"></rect><rect x="171.875" y="66.66666666666667" width="15.625" height="16.666666666666668" fill="hsla(272, 100%, 50%, 1)" id="4sa4vw2r6c6"></rect><rect x="187.5" y="66.66666666666667" width="15.625" height="16.666666666666668" fill="hsla(264, 100%, 50%, 1)" id="ysjmh1gbloj"></rect><rect x="203.125" y="66.66666666666667" width="15.625" height="16.666666666666668" fill="hsla(256, 100%, 50%, 1)" id="legvjfqmj2"></rect><rect x="218.75" y="66.66666666666667" width="15.625" height="16.666666666666668" fill="hsla(248, 100%, 50%, 1)" id="lm2oux6j63"></rect><rect x="234.375" y="66.66666666666667" width="15.625" height="16.666666666666668" fill="hsla(240, 100%, 50%, 1)" id="tg30r6od258"></rect><rect x="0" y="150" width="15.625" height="16.666666666666668" fill="hsla(0, 100%, 50%, 1)" id="8xqlgs769wq"></rect><rect x="15.625" y="150" width="15.625" height="16.666666666666668" fill="hsla(344, 100%, 50%, 1)" id="xl03siko9tj"></rect><rect x="31.25" y="150" width="15.625" height="16.666666666666668" fill="hsla(328, 100%, 50%, 1)" id="y8pzqwl8bcf"></rect><rect x="46.875" y="150" width="15.625" height="16.666666666666668" fill="hsla(312, 100%, 50%, 1)" id="bsgrt2v5msc"></rect><rect x="62.5" y="150" width="15.625" height="16.666666666666668" fill="hsla(296, 100%, 50%, 1)" id="u7fhvbq9mu9"></rect><rect x="78.125" y="150" width="15.625" height="16.666666666666668" fill="hsla(280, 100%, 50%, 1)" id="ejwhzes2a4r"></rect><rect x="93.75" y="150" width="15.625" height="16.666666666666668" fill="hsla(264, 100%, 50%, 1)" id="e938trq49s"></rect><rect x="109.375" y="150" width="15.625" height="16.666666666666668" fill="hsla(248, 100%, 50%, 1)" id="0q99f9ywltm"></rect><rect x="125" y="150" width="15.625" height="16.666666666666668" fill="hsla(232, 100%, 50%, 1)" id="x9dt4bdnit"></rect><rect x="140.625" y="150" width="15.625" height="16.666666666666668" fill="hsla(216, 100%, 50%, 1)" id="8wivsl280bd"></rect><rect x="156.25" y="150" width="15.625" height="16.666666666666668" fill="hsla(200, 100%, 50%, 1)" id="kmhejbrqizl"></rect><rect x="171.875" y="150" width="15.625" height="16.666666666666668" fill="hsla(184, 100%, 50%, 1)" id="pzvbkt5myoo"></rect><rect x="187.5" y="150" width="15.625" height="16.666666666666668" fill="hsla(168, 100%, 50%, 1)" id="lkcelsisghm"></rect><rect x="203.125" y="150" width="15.625" height="16.666666666666668" fill="hsla(152, 100%, 50%, 1)" id="bxbqeon8qia"></rect><rect x="218.75" y="150" width="15.625" height="16.666666666666668" fill="hsla(136, 100%, 50%, 1)" id="nn16toithn"></rect><rect x="234.375" y="150" width="15.625" height="16.666666666666668" fill="hsla(120, 100%, 50%, 1)" id="5nc2fvrcyhc"></rect><rect x="0" y="233.33333333333334" width="15.625" height="16.666666666666668" fill="hsla(210, 65.3846153846154%, 20.392156862745097%, 1)" id="ldw7to3iva9"></rect><rect x="15.625" y="233.33333333333334" width="15.625" height="16.666666666666668" fill="hsla(210, 65.55897435897438%, 24.3921568627451%, 1)" id="x8w5m8dmu4"></rect><rect x="31.25" y="233.33333333333334" width="15.625" height="16.666666666666668" fill="hsla(210, 65.73333333333335%, 28.3921568627451%, 1)" id="967lolmau2c"></rect><rect x="46.875" y="233.33333333333334" width="15.625" height="16.666666666666668" fill="hsla(210, 65.90769230769233%, 32.392156862745104%, 1)" id="7tpko8ed7ku"></rect><rect x="62.5" y="233.33333333333334" width="15.625" height="16.666666666666668" fill="hsla(210, 66.0820512820513%, 36.392156862745104%, 1)" id="uoc3uy4kund"></rect><rect x="78.125" y="233.33333333333334" width="15.625" height="16.666666666666668" fill="hsla(210, 66.25641025641028%, 40.3921568627451%, 1)" id="64ono4yhs3y"></rect><rect x="93.75" y="233.33333333333334" width="15.625" height="16.666666666666668" fill="hsla(210, 66.43076923076924%, 44.392156862745104%, 1)" id="y0hc6l5sny"></rect><rect x="109.375" y="233.33333333333334" width="15.625" height="16.666666666666668" fill="hsla(210, 66.60512820512822%, 48.392156862745104%, 1)" id="s4yvk63656"></rect><rect x="125" y="233.33333333333334" width="15.625" height="16.666666666666668" fill="hsla(210, 66.77948717948719%, 52.3921568627451%, 1)" id="sxcuybgmpk"></rect><rect x="140.625" y="233.33333333333334" width="15.625" height="16.666666666666668" fill="hsla(210, 66.95384615384617%, 56.392156862745104%, 1)" id="5e8sfq7wuy"></rect><rect x="156.25" y="233.33333333333334" width="15.625" height="16.666666666666668" fill="hsla(210, 67.12820512820515%, 60.392156862745104%, 1)" id="kjg5y6yyug"></rect><rect x="171.875" y="233.33333333333334" width="15.625" height="16.666666666666668" fill="hsla(210, 67.30256410256412%, 64.39215686274511%, 1)" id="09c5rrgaj0jm"></rect><rect x="187.5" y="233.33333333333334" width="15.625" height="16.666666666666668" fill="hsla(210, 67.4769230769231%, 68.39215686274511%, 1)" id="tjupopd2enm"></rect><rect x="203.125" y="233.33333333333334" width="15.625" height="16.666666666666668" fill="hsla(210, 67.65128205128208%, 72.39215686274511%, 1)" id="9qs984hdj36"></rect><rect x="218.75" y="233.33333333333334" width="15.625" height="16.666666666666668" fill="hsla(210, 67.82564102564105%, 76.3921568627451%, 1)" id="6cald68o7m"></rect><rect x="234.375" y="233.33333333333334" width="15.625" height="16.666666666666668" fill="hsla(210, 68.00000000000003%, 80.3921568627451%, 1)" id="9ahrfxcqaca"></rect></svg>