<svg id="root" width="250px" height="250px" xmlns="http://www.w3.org/2000/svg" xlink="http://www.w3.org/1999/xlink" version="1.1"><defs id="isg6lz7uy2e"></defs><rect x="0" y="0" width="15.625" height="16.666666666666668" fill="rgba(255, 0, 0, 1)" id="4g9dsx0a65a"></rect><rect x="15.625" y="0" width="15.625" height="16.666666666666668" fill="rgba(238, 0, 17, 1)" id="np4gqb9pune"></rect><rect x="31.25" y="0" width="15.625" height="16.666666666666668" fill="rgba(221, 0, 34, 1)" id="yo2z18ha7ub"></rect><rect x="46.875" y="0" width="15.625" height="16.666666666666668" fill="rgba(204, 0, 51, 1)" id="5guhow79lqe"></rect><rect x="62.5" y="0" width="15.625" height="16.666666666666668" fill="rgba(187, 0, 68, 1)" id="ix4sdja22j"></rect><rect x="78.125" y="0" width="15.625" height="16.666666666666668" fill="rgba(170, 0, 85, 1)" id="dn0bz6hld1t"></rect><rect x="93.75" y="0" width="15.625" height="16.666666666666668" fill="rgba(153, 0, 102, 1)" id="lizj6b2xxjn"></rect><rect x="109.375" y="0" width="15.625" height="16.666666666666668" fill="rgba(136, 0, 119, 1)" id="ctirc5259g5"></rect><rect x="125" y="0" width="15.625" height="16.666666666666668" fill="rgba(119, 0, 136, 1)" id="ec7um6qmful"></rect><rect x="140.625" y="0" width="15.625" height="16.666666666666668" fill="rgba(102, 0, 153, 1)" id="phd3pinrmqp"></rect><rect x="156.25" y="0" width="15.625" height="16.666666666666668" fill="rgba(85, 0, 170, 1)" id="isqvhjdum2g"></rect><rect x="171.875" y="0" width="15.625" height="16.666666666666668" fill="rgba(68, 0, 187, 1)" id="ivyjaq2qxsm"></rect><rect x="187.5" y="0" width="15.625" height="16.666666666666668" fill="rgba(51, 0, 204, 1)" id="ij35xg2rxm"></rect><rect x="203.125" y="0" width="15.625" height="16.666666666666668" fill="rgba(34, 0, 221, 1)" id="5cd46oixhek"></rect><rect x="218.75" y="0" width="15.625" height="16.666666666666668" fill="rgba(17, 0, 238, 1)" id="it027u1hv9"></rect><rect x="234.375" y="0" width="15.625" height="16.666666666666668" fill="rgba(0, 0, 255, 1)" id="50ptdrkn3de"></rect><rect x="0" y="83.33333333333334" width="15.625" height="16.666666666666668" fill="rgba(255, 0, 0, 1)" id="7i7at0mzksw"></rect><rect x="15.625" y="83.33333333333334" width="15.625" height="16.666666666666668" fill="rgba(238, 17, 0, 1)" id="ip1ggetyxq"></rect><rect x="31.25" y="83.33333333333334" width="15.625" height="16.666666666666668" fill="rgba(221, 34, 0, 1)" id="p14cuwtdj9"></rect><rect x="46.875" y="83.33333333333334" width="15.625" height="16.666666666666668" fill="rgba(204, 51, 0, 1)" id="y1o9u4k0fca"></rect><rect x="62.5" y="83.33333333333334" width="15.625" height="16.666666666666668" fill="rgba(187, 68, 0, 1)" id="v7fp1c6yn8s"></rect><rect x="78.125" y="83.33333333333334" width="15.625" height="16.666666666666668" fill="rgba(170, 85, 0, 1)" id="rbipdkb166"></rect><rect x="93.75" y="83.33333333333334" width="15.625" height="16.666666666666668" fill="rgba(153, 102, 0, 1)" id="8ljjkwclfit"></rect><rect x="109.375" y="83.33333333333334" width="15.625" height="16.666666666666668" fill="rgba(136, 119, 0, 1)" id="w2exyc54i5p"></rect><rect x="125" y="83.33333333333334" width="15.625" height="16.666666666666668" fill="rgba(119, 136, 0, 1)" id="71g4zio3v8l"></rect><rect x="140.625" y="83.33333333333334" width="15.625" height="16.666666666666668" fill="rgba(102, 153, 0, 1)" id="e2ymo6sn9lu"></rect><rect x="156.25" y="83.33333333333334" width="15.625" height="16.666666666666668" fill="rgba(85, 170, 0, 1)" id="fo8h11sm1n9"></rect><rect x="171.875" y="83.33333333333334" width="15.625" height="16.666666666666668" fill="rgba(68, 187, 0, 1)" id="2fko2xlf5g"></rect><rect x="187.5" y="83.33333333333334" width="15.625" height="16.666666666666668" fill="rgba(51, 204, 0, 1)" id="dl3f930esv9"></rect><rect x="203.125" y="83.33333333333334" width="15.625" height="16.666666666666668" fill="rgba(34, 221, 0, 1)" id="ts6309j1xg9"></rect><rect x="218.75" y="83.33333333333334" width="15.625" height="16.666666666666668" fill="rgba(17, 238, 0, 1)" id="h6h7506zw87"></rect><rect x="234.375" y="83.33333333333334" width="15.625" height="16.666666666666668" fill="rgba(0, 255, 0, 1)" id="qmrnhcp6c9m"></rect><rect x="0" y="166.66666666666669" width="15.625" height="16.666666666666668" fill="rgba(18, 52, 86, 1)" id="90ezdk7rxt7"></rect><rect x="15.625" y="166.66666666666669" width="15.625" height="16.666666666666668" fill="rgba(28, 62, 96, 1)" id="nkj8j7ave9"></rect><rect x="31.25" y="166.66666666666669" width="15.625" height="16.666666666666668" fill="rgba(38, 72, 106, 1)" id="v5w12b0tgg"></rect><rect x="46.875" y="166.66666666666669" width="15.625" height="16.666666666666668" fill="rgba(49, 83, 117, 1)" id="qjuo4lc9s7d"></rect><rect x="62.5" y="166.66666666666669" width="15.625" height="16.666666666666668" fill="rgba(59, 93, 127, 1)" id="al33mlwnwt9"></rect><rect x="78.125" y="166.66666666666669" width="15.625" height="16.666666666666668" fill="rgba(69, 103, 137, 1)" id="vxjkj8ctxqf"></rect><rect x="93.75" y="166.66666666666669" width="15.625" height="16.666666666666668" fill="rgba(79, 113, 147, 1)" id="214dovm3qsr"></rect><rect x="109.375" y="166.66666666666669" width="15.625" height="16.666666666666668" fill="rgba(89, 123, 157, 1)" id="ppikejcdab"></rect><rect x="125" y="166.66666666666669" width="15.625" height="16.666666666666668" fill="rgba(100, 134, 168, 1)" id="7gpsqasey5o"></rect><rect x="140.625" y="166.66666666666669" width="15.625" height="16.666666666666668" fill="rgba(110, 144, 178, 1)" id="glll8fp684o"></rect><rect x="156.25" y="166.66666666666669" width="15.625" height="16.666666666666668" fill="rgba(120, 154, 188, 1)" id="umcx99wtdz"></rect><rect x="171.875" y="166.66666666666669" width="15.625" height="16.666666666666668" fill="rgba(130, 164, 198, 1)" id="bgpw9qba9h"></rect><rect x="187.5" y="166.66666666666669" width="15.625" height="16.666666666666668" fill="rgba(140, 174, 208, 1)" id="09a0b9sr2fe"></rect><rect x="203.125" y="166.66666666666669" width="15.625" height="16.666666666666668" fill="rgba(151, 185, 219, 1)" id="tzvif18p8y"></rect><rect x="218.75" y="166.66666666666669" width="15.625" height="16.666666666666668" fill="rgba(161, 195, 229, 1)" id="iwlv2rx1ni"></rect><rect x="234.375" y="166.66666666666669" width="15.625" height="16.666666666666668" fill="rgba(171, 205, 239, 1)" id="wkxdfwjczt8"></rect><rect x="0" y="16.666666666666668" width="15.625" height="16.666666666666668" fill="hsla(0, 100%, 50%, 1)" id="dvew0i7wfjr"></rect><rect x="15.625" y="16.666666666666668" width="15.625" height="16.666666666666668" fill="hsla(352, 100%, 50%, 1)" id="lxj7zso4op"></rect><rect x="31.25" y="16.666666666666668" width="15.625" height="16.666666666666668" fill="hsla(344, 100%, 50%, 1)" id="zuo1r9f59qn"></rect><rect x="46.875" y="16.666666666666668" width="15.625" height="16.666666666666668" fill="hsla(336, 100%, 50%, 1)" id="ag64gjrr5lb"></rect><rect x="62.5" y="16.666666666666668" width="15.625" height="16.666666666666668" fill="hsla(328, 100%, 50%, 1)" id="c8zdc22ypks"></rect><rect x="78.125" y="16.666666666666668" width="15.625" height="16.666666666666668" fill="hsla(320, 100%, 50%, 1)" id="3vnnp3yfu7i"></rect><rect x="93.75" y="16.666666666666668" width="15.625" height="16.666666666666668" fill="hsla(312, 100%, 50%, 1)" id="tpzlzteqv7"></rect><rect x="109.375" y="16.666666666666668" width="15.625" height="16.666666666666668" fill="hsla(304, 100%, 50%, 1)" id="l789xmzquc8"></rect><rect x="125" y="16.666666666666668" width="15.625" height="16.666666666666668" fill="hsla(296, 100%, 50%, 1)" id="04kwfnsbsx2q"></rect><rect x="140.625" y="16.666666666666668" width="15.625" height="16.666666666666668" fill="hsla(288, 100%, 50%, 1)" id="pcai0kr0mqj"></rect><rect x="156.25" y="16.666666666666668" width="15.625" height="16.666666666666668" fill="hsla(280, 100%, 50%, 1)" id="gb0hrrqugfw"></rect><rect x="171.875" y="16.666666666666668" width="15.625" height="16.666666666666668" fill="hsla(272, 100%, 50%, 1)" id="a57iuf1eulj"></rect><rect x="187.5" y="16.666666666666668" width="15.625" height="16.666666666666668" fill="hsla(264, 100%, 50%, 1)" id="d3t83gqx1pa"></rect><rect x="203.125" y="16.666666666666668" width="15.625" height="16.666666666666668" fill="hsla(256, 100%, 50%, 1)" id="epv4p1301eq"></rect><rect x="218.75" y="16.666666666666668" width="15.625" height="16.666666666666668" fill="hsla(248, 100%, 50%, 1)" id="fkn07atirrw"></rect><rect x="234.375" y="16.666666666666668" width="15.625" height="16.666666666666668" fill="hsla(240, 100%, 50%, 1)" id="22jpdl2evsm"></rect><rect x="0" y="100" width="15.625" height="16.666666666666668" fill="hsla(0, 100%, 50%, 1)" id="h8c1z7br6ql"></rect><rect x="15.625" y="100" width="15.625" height="16.666666666666668" fill="hsla(8, 100%, 50%, 1)" id="aaaxp548fp8"></rect><rect x="31.25" y="100" width="15.625" height="16.666666666666668" fill="hsla(16, 100%, 50%, 1)" id="0vr6b2o4ci3"></rect><rect x="46.875" y="100" width="15.625" height="16.666666666666668" fill="hsla(24, 100%, 50%, 1)" id="c9yrxeofl84"></rect><rect x="62.5" y="100" width="15.625" height="16.666666666666668" fill="hsla(32, 100%, 50%, 1)" id="74cgzzd5h03"></rect><rect x="78.125" y="100" width="15.625" height="16.666666666666668" fill="hsla(40, 100%, 50%, 1)" id="06a5aop20rb6"></rect><rect x="93.75" y="100" width="15.625" height="16.666666666666668" fill="hsla(48, 100%, 50%, 1)" id="rnw30fg0ock"></rect><rect x="109.375" y="100" width="15.625" height="16.666666666666668" fill="hsla(56, 100%, 50%, 1)" id="0615cdrjac6y"></rect><rect x="125" y="100" width="15.625" height="16.666666666666668" fill="hsla(64, 100%, 50%, 1)" id="wg73hkkmjsm"></rect><rect x="140.625" y="100" width="15.625" height="16.666666666666668" fill="hsla(72, 100%, 50%, 1)" id="258cg7wxbom"></rect><rect x="156.25" y="100" width="15.625" height="16.666666666666668" fill="hsla(80, 100%, 50%, 1)" id="ak3qrxoifka"></rect><rect x="171.875" y="100" width="15.625" height="16.666666666666668" fill="hsla(88, 100%, 50%, 1)" id="72ebdl7t3oi"></rect><rect x="187.5" y="100" width="15.625" height="16.666666666666668" fill="hsla(96, 100%, 50%, 1)" id="or0frokh0gi"></rect><rect x="203.125" y="100" width="15.625" height="16.666666666666668" fill="hsla(104, 100%, 50%, 1)" id="mtvnub6d7cn"></rect><rect x="218.75" y="100" width="15.625" height="16.666666666666668" fill="hsla(112, 100%, 50%, 1)" id="dhrqgboxui"></rect><rect x="234.375" y="100" width="15.625" height="16.666666666666668" fill="hsla(120, 100%, 50%, 1)" id="f1te4lbiupm"></rect><rect x="0" y="183.33333333333334" width="15.625" height="16.666666666666668" fill="hsla(210, 65.3846153846154%, 20.392156862745097%, 1)" id="yt86v2z0mu"></rect><rect x="15.625" y="183.33333333333334" width="15.625" height="16.666666666666668" fill="hsla(210, 65.55897435897438%, 24.3921568627451%, 1)" id="hxss0888bt5"></rect><rect x="31.25" y="183.33333333333334" width="15.625" height="16.666666666666668" fill="hsla(210, 65.73333333333335%, 28.3921568627451%, 1)" id="mpms05h9pk"></rect><rect x="46.875" y="183.33333333333334" width="15.625" height="16.666666666666668" fill="hsla(210, 65.90769230769233%, 32.392156862745104%, 1)" id="ighseclvfu8"></rect><rect x="62.5" y="183.33333333333334" width="15.625" height="16.666666666666668" fill="hsla(210, 66.0820512820513%, 36.392156862745104%, 1)" id="4mpgfliqag"></rect><rect x="78.125" y="183.33333333333334" width="15.625" height="16.666666666666668" fill="hsla(210, 66.25641025641028%, 40.3921568627451%, 1)" id="7nwe5vkr2f8"></rect><rect x="93.75" y="183.33333333333334" width="15.625" height="16.666666666666668" fill="hsla(210, 66.43076923076924%, 44.392156862745104%, 1)" id="2k4ek5i3dyk"></rect><rect x="109.375" y="183.33333333333334" width="15.625" height="16.666666666666668" fill="hsla(210, 66.60512820512822%, 48.392156862745104%, 1)" id="wfulnisrw2"></rect><rect x="125" y="183.33333333333334" width="15.625" height="16.666666666666668" fill="hsla(210, 66.77948717948719%, 52.3921568627451%, 1)" id="3dzaaqoapp"></rect><rect x="140.625" y="183.33333333333334" width="15.625" height="16.666666666666668" fill="hsla(210, 66.95384615384617%, 56.392156862745104%, 1)" id="qryse2p65n"></rect><rect x="156.25" y="183.33333333333334" width="15.625" height="16.666666666666668" fill="hsla(210, 67.12820512820515%, 60.392156862745104%, 1)" id="ymemt2ccki"></rect><rect x="171.875" y="183.33333333333334" width="15.625" height="16.666666666666668" fill="hsla(210, 67.30256410256412%, 64.39215686274511%, 1)" id="btkruu4asjv"></rect><rect x="187.5" y="183.33333333333334" width="15.625" height="16.666666666666668" fill="hsla(210, 67.4769230769231%, 68.39215686274511%, 1)" id="194wippm6ll"></rect><rect x="203.125" y="183.33333333333334" width="15.625" height="16.666666666666668" fill="hsla(210, 67.65128205128208%, 72.39215686274511%, 1)" id="z2ytaai1de"></rect><rect x="218.75" y="183.33333333333334" width="15.625" height="16.666666666666668" fill="hsla(210, 67.82564102564105%, 76.3921568627451%, 1)" id="3jr1xp3jx5e"></rect><rect x="234.375" y="183.33333333333334" width="15.625" height="16.666666666666668" fill="hsla(210, 68.00000000000003%, 80.3921568627451%, 1)" id="q9cltfewobo"></rect><rect x="0" y="33.333333333333336" width="15.625" height="16.666666666666668" fill="hsla(0, 100%, 50%, 1)" id="pheoamqiuv"></rect><rect x="15.625" y="33.333333333333336" width="15.625" height="16.666666666666668" fill="hsla(16, 100%, 50%, 1)" id="f505vvwam3f"></rect><rect x="31.25" y="33.333333333333336" width="15.625" height="16.666666666666668" fill="hsla(32, 100%, 50%, 1)" id="74ugyh53m17"></rect><rect x="46.875" y="33.333333333333336" width="15.625" height="16.666666666666668" fill="hsla(48, 100%, 50%, 1)" id="uewnefbmeq"></rect><rect x="62.5" y="33.333333333333336" width="15.625" height="16.666666666666668" fill="hsla(64, 100%, 50%, 1)" id="ngiyiefdl6t"></rect><rect x="78.125" y="33.333333333333336" width="15.625" height="16.666666666666668" fill="hsla(80, 100%, 50%, 1)" id="3gnojz88im8"></rect><rect x="93.75" y="33.333333333333336" width="15.625" height="16.666666666666668" fill="hsla(96, 100%, 50%, 1)" id="xs2b7pknxrg"></rect><rect x="109.375" y="33.333333333333336" width="15.625" height="16.666666666666668" fill="hsla(112, 100%, 50%, 1)" id="0872gfrbl9qr"></rect><rect x="125" y="33.333333333333336" width="15.625" height="16.666666666666668" fill="hsla(128, 100%, 50%, 1)" id="o3qsp63xsag"></rect><rect x="140.625" y="33.333333333333336" width="15.625" height="16.666666666666668" fill="hsla(144, 100%, 50%, 1)" id="vmz6fteybwi"></rect><rect x="156.25" y="33.333333333333336" width="15.625" height="16.666666666666668" fill="hsla(160, 100%, 50%, 1)" id="fkbsbybrpyk"></rect><rect x="171.875" y="33.333333333333336" width="15.625" height="16.666666666666668" fill="hsla(176, 100%, 50%, 1)" id="rd1nt6zer3c"></rect><rect x="187.5" y="33.333333333333336" width="15.625" height="16.666666666666668" fill="hsla(192, 100%, 50%, 1)" id="nl15bpum4pf"></rect><rect x="203.125" y="33.333333333333336" width="15.625" height="16.666666666666668" fill="hsla(208, 100%, 50%, 1)" id="crai0knmzsq"></rect><rect x="218.75" y="33.333333333333336" width="15.625" height="16.666666666666668" fill="hsla(224, 100%, 50%, 1)" id="d4b0spfnsuj"></rect><rect x="234.375" y="33.333333333333336" width="15.625" height="16.666666666666668" fill="hsla(240, 100%, 50%, 1)" id="uecnxhlwveq"></rect><rect x="0" y="116.66666666666667" width="15.625" height="16.666666666666668" fill="hsla(0, 100%, 50%, 1)" id="8axqmf692h"></rect><rect x="15.625" y="116.66666666666667" width="15.625" height="16.666666666666668" fill="hsla(344, 100%, 50%, 1)" id="0jcphq337hr8"></rect><rect x="31.25" y="116.66666666666667" width="15.625" height="16.666666666666668" fill="hsla(328, 100%, 50%, 1)" id="1k7b1d1fol5"></rect><rect x="46.875" y="116.66666666666667" width="15.625" height="16.666666666666668" fill="hsla(312, 100%, 50%, 1)" id="if8zzkqdols"></rect><rect x="62.5" y="116.66666666666667" width="15.625" height="16.666666666666668" fill="hsla(296, 100%, 50%, 1)" id="48n43tdahvg"></rect><rect x="78.125" y="116.66666666666667" width="15.625" height="16.666666666666668" fill="hsla(280, 100%, 50%, 1)" id="v3q4m95qs"></rect><rect x="93.75" y="116.66666666666667" width="15.625" height="16.666666666666668" fill="hsla(264, 100%, 50%, 1)" id="4ep6ufo9s0f"></rect><rect x="109.375" y="116.66666666666667" width="15.625" height="16.666666666666668" fill="hsla(248, 100%, 50%, 1)" id="69kfoa5egx2"></rect><rect x="125" y="116.66666666666667" width="15.625" height="16.666666666666668" fill="hsla(232, 100%, 50%, 1)" id="pvdqnqocsz9"></rect><rect x="140.625" y="116.66666666666667" width="15.625" height="16.666666666666668" fill="hsla(216, 100%, 50%, 1)" id="yz5ejj2wpo9"></rect><rect x="156.25" y="116.66666666666667" width="15.625" height="16.666666666666668" fill="hsla(200, 100%, 50%, 1)" id="i60por5sfo"></rect><rect x="171.875" y="116.66666666666667" width="15.625" height="16.666666666666668" fill="hsla(184, 100%, 50%, 1)" id="u9e67ykvav"></rect><rect x="187.5" y="116.66666666666667" width="15.625" height="16.666666666666668" fill="hsla(168, 100%, 50%, 1)" id="mgmwniywftd"></rect><rect x="203.125" y="116.66666666666667" width="15.625" height="16.666666666666668" fill="hsla(152, 100%, 50%, 1)" id="xpgdhmcbjaq"></rect><rect x="218.75" y="116.66666666666667" width="15.625" height="16.666666666666668" fill="hsla(136, 100%, 50%, 1)" id="p35uvcidz58"></rect><rect x="234.375" y="116.66666666666667" width="15.625" height="16.666666666666668" fill="hsla(120, 100%, 50%, 1)" id="kkd8o71w8q"></rect><rect x="0" y="200" width="15.625" height="16.666666666666668" fill="hsla(210, 65.3846153846154%, 20.392156862745097%, 1)" id="y1qz09kfvvo"></rect><rect x="15.625" y="200" width="15.625" height="16.666666666666668" fill="hsla(210, 65.55897435897438%, 24.3921568627451%, 1)" id="m1044sdv2w"></rect><rect x="31.25" y="200" width="15.625" height="16.666666666666668" fill="hsla(210, 65.73333333333335%, 28.3921568627451%, 1)" id="5x6x1b8q5lm"></rect><rect x="46.875" y="200" width="15.625" height="16.666666666666668" fill="hsla(210, 65.90769230769233%, 32.392156862745104%, 1)" id="i2mmej830fs"></rect><rect x="62.5" y="200" width="15.625" height="16.666666666666668" fill="hsla(210, 66.0820512820513%, 36.392156862745104%, 1)" id="8ip6vj14b24"></rect><rect x="78.125" y="200" width="15.625" height="16.666666666666668" fill="hsla(210, 66.25641025641028%, 40.3921568627451%, 1)" id="q1igq2avn5a"></rect><rect x="93.75" y="200" width="15.625" height="16.666666666666668" fill="hsla(210, 66.43076923076924%, 44.392156862745104%, 1)" id="cdxdr60q3ld"></rect><rect x="109.375" y="200" width="15.625" height="16.666666666666668" fill="hsla(210, 66.60512820512822%, 48.392156862745104%, 1)" id="8gcy8o7lv94"></rect><rect x="125" y="200" width="15.625" height="16.666666666666668" fill="hsla(210, 66.77948717948719%, 52.3921568627451%, 1)" id="p3bx4l7m7"></rect><rect x="140.625" y="200" width="15.625" height="16.666666666666668" fill="hsla(210, 66.95384615384617%, 56.392156862745104%, 1)" id="49x8mq1kggx"></rect><rect x="156.25" y="200" width="15.625" height="16.666666666666668" fill="hsla(210, 67.12820512820515%, 60.392156862745104%, 1)" id="9avysb2olyt"></rect><rect x="171.875" y="200" width="15.625" height="16.666666666666668" fill="hsla(210, 67.30256410256412%, 64.39215686274511%, 1)" id="inhyv6iepg"></rect><rect x="187.5" y="200" width="15.625" height="16.666666666666668" fill="hsla(210, 67.4769230769231%, 68.39215686274511%, 1)" id="r8teyygb47"></rect><rect x="203.125" y="200" width="15.625" height="16.666666666666668" fill="hsla(210, 67.65128205128208%, 72.39215686274511%, 1)" id="2ox2cdnyqpw"></rect><rect x="218.75" y="200" width="15.625" height="16.666666666666668" fill="hsla(210, 67.82564102564105%, 76.3921568627451%, 1)" id="912m9bqjnnb"></rect><rect x="234.375" y="200" width="15.625" height="16.666666666666668" fill="hsla(210, 68.00000000000003%, 80.3921568627451%, 1)" id="s7fu6pokvhg"></rect><rect x="0" y="50" width="15.625" height="16.666666666666668" fill="hsla(0, 100%, 50%, 1)" id="zljhvp72bhc"></rect><rect x="15.625" y="50" width="15.625" height="16.666666666666668" fill="hsla(16, 100%, 50%, 1)" id="6ekvj4b4x6"></rect><rect x="31.25" y="50" width="15.625" height="16.666666666666668" fill="hsla(32, 100%, 50%, 1)" id="ffv8qmyhmwj"></rect><rect x="46.875" y="50" width="15.625" height="16.666666666666668" fill="hsla(48, 100%, 50%, 1)" id="zk4m1sbi0ms"></rect><rect x="62.5" y="50" width="15.625" height="16.666666666666668" fill="hsla(64, 100%, 50%, 1)" id="apb6fbjbsp"></rect><rect x="78.125" y="50" width="15.625" height="16.666666666666668" fill="hsla(80, 100%, 50%, 1)" id="jnn4puwgmim"></rect><rect x="93.75" y="50" width="15.625" height="16.666666666666668" fill="hsla(96, 100%, 50%, 1)" id="quafhsfd12s"></rect><rect x="109.375" y="50" width="15.625" height="16.666666666666668" fill="hsla(112, 100%, 50%, 1)" id="qjpve4pe6t"></rect><rect x="125" y="50" width="15.625" height="16.666666666666668" fill="hsla(128, 100%, 50%, 1)" id="x21tpdbnj4g"></rect><rect x="140.625" y="50" width="15.625" height="16.666666666666668" fill="hsla(144, 100%, 50%, 1)" id="ik38qqo5yp9"></rect><rect x="156.25" y="50" width="15.625" height="16.666666666666668" fill="hsla(160, 100%, 50%, 1)" id="kt26kd812mk"></rect><rect x="171.875" y="50" width="15.625" height="16.666666666666668" fill="hsla(176, 100%, 50%, 1)" id="nzl80nfyd8d"></rect><rect x="187.5" y="50" width="15.625" height="16.666666666666668" fill="hsla(192, 100%, 50%, 1)" id="th2e80n20i"></rect><rect x="203.125" y="50" width="15.625" height="16.666666666666668" fill="hsla(208, 100%, 50%, 1)" id="mvg2thwgm1"></rect><rect x="218.75" y="50" width="15.625" height="16.666666666666668" fill="hsla(224, 100%, 50%, 1)" id="bwgv500sqrm"></rect><rect x="234.375" y="50" width="15.625" height="16.666666666666668" fill="hsla(240, 100%, 50%, 1)" id="g0zno4jnh7r"></rect><rect x="0" y="133.33333333333334" width="15.625" height="16.666666666666668" fill="hsla(0, 100%, 50%, 1)" id="c4qzh60lh07"></rect><rect x="15.625" y="133.33333333333334" width="15.625" height="16.666666666666668" fill="hsla(8, 100%, 50%, 1)" id="zijbfrs1qlk"></rect><rect x="31.25" y="133.33333333333334" width="15.625" height="16.666666666666668" fill="hsla(16, 100%, 50%, 1)" id="didv4bzwbpu"></rect><rect x="46.875" y="133.33333333333334" width="15.625" height="16.666666666666668" fill="hsla(24, 100%, 50%, 1)" id="b9drmk1watg"></rect><rect x="62.5" y="133.33333333333334" width="15.625" height="16.666666666666668" fill="hsla(32, 100%, 50%, 1)" id="hm3903sejdv"></rect><rect x="78.125" y="133.33333333333334" width="15.625" height="16.666666666666668" fill="hsla(40, 100%, 50%, 1)" id="95zabus6c9"></rect><rect x="93.75" y="133.33333333333334" width="15.625" height="16.666666666666668" fill="hsla(48, 100%, 50%, 1)" id="at90jp3lb7f"></rect><rect x="109.375" y="133.33333333333334" width="15.625" height="16.666666666666668" fill="hsla(56, 100%, 50%, 1)" id="rsa6g72xlud"></rect><rect x="125" y="133.33333333333334" width="15.625" height="16.666666666666668" fill="hsla(64, 100%, 50%, 1)" id="5zici3r96wn"></rect><rect x="140.625" y="133.33333333333334" width="15.625" height="16.666666666666668" fill="hsla(72, 100%, 50%, 1)" id="04ne9msptnyx"></rect><rect x="156.25" y="133.33333333333334" width="15.625" height="16.666666666666668" fill="hsla(80, 100%, 50%, 1)" id="9sr77jd2nqe"></rect><rect x="171.875" y="133.33333333333334" width="15.625" height="16.666666666666668" fill="hsla(88, 100%, 50%, 1)" id="imdiqi8tjp"></rect><rect x="187.5" y="133.33333333333334" width="15.625" height="16.666666666666668" fill="hsla(96, 100%, 50%, 1)" id="etfbnlzmr5g"></rect><rect x="203.125" y="133.33333333333334" width="15.625" height="16.666666666666668" fill="hsla(104, 100%, 50%, 1)" id="jxp0muqmpzs"></rect><rect x="218.75" y="133.33333333333334" width="15.625" height="16.666666666666668" fill="hsla(112, 100%, 50%, 1)" id="7uiyxqf2clk"></rect><rect x="234.375" y="133.33333333333334" width="15.625" height="16.666666666666668" fill="hsla(120, 100%, 50%, 1)" id="wkizn0no9t"></rect><rect x="0" y="216.66666666666669" width="15.625" height="16.666666666666668" fill="hsla(210, 65.3846153846154%, 20.392156862745097%, 1)" id="9ol1rfgd6uu"></rect><rect x="15.625" y="216.66666666666669" width="15.625" height="16.666666666666668" fill="hsla(210, 65.55897435897438%, 24.3921568627451%, 1)" id="h9dl9eooyt"></rect><rect x="31.25" y="216.66666666666669" width="15.625" height="16.666666666666668" fill="hsla(210, 65.73333333333335%, 28.3921568627451%, 1)" id="ip8x1nj5f3r"></rect><rect x="46.875" y="216.66666666666669" width="15.625" height="16.666666666666668" fill="hsla(210, 65.90769230769233%, 32.392156862745104%, 1)" id="0872vxrpcmnm"></rect><rect x="62.5" y="216.66666666666669" width="15.625" height="16.666666666666668" fill="hsla(210, 66.0820512820513%, 36.392156862745104%, 1)" id="ryvfnekceg"></rect><rect x="78.125" y="216.66666666666669" width="15.625" height="16.666666666666668" fill="hsla(210, 66.25641025641028%, 40.3921568627451%, 1)" id="j1tod66wu8j"></rect><rect x="93.75" y="216.66666666666669" width="15.625" height="16.666666666666668" fill="hsla(210, 66.43076923076924%, 44.392156862745104%, 1)" id="ajhqizg3pps"></rect><rect x="109.375" y="216.66666666666669" width="15.625" height="16.666666666666668" fill="hsla(210, 66.60512820512822%, 48.392156862745104%, 1)" id="1ay4ljuovvu"></rect><rect x="125" y="216.66666666666669" width="15.625" height="16.666666666666668" fill="hsla(210, 66.77948717948719%, 52.3921568627451%, 1)" id="zgk3cxsza3e"></rect><rect x="140.625" y="216.66666666666669" width="15.625" height="16.666666666666668" fill="hsla(210, 66.95384615384617%, 56.392156862745104%, 1)" id="rw8wkxik19a"></rect><rect x="156.25" y="216.66666666666669" width="15.625" height="16.666666666666668" fill="hsla(210, 67.12820512820515%, 60.392156862745104%, 1)" id="d4uoowpzri8"></rect><rect x="171.875" y="216.66666666666669" width="15.625" height="16.666666666666668" fill="hsla(210, 67.30256410256412%, 64.39215686274511%, 1)" id="78ioj551fof"></rect><rect x="187.5" y="216.66666666666669" width="15.625" height="16.666666666666668" fill="hsla(210, 67.4769230769231%, 68.39215686274511%, 1)" id="57lnvj7sz8b"></rect><rect x="203.125" y="216.66666666666669" width="15.625" height="16.666666666666668" fill="hsla(210, 67.65128205128208%, 72.39215686274511%, 1)" id="0rdfh7gwsoan"></rect><rect x="218.75" y="216.66666666666669" width="15.625" height="16.666666666666668" fill="hsla(210, 67.82564102564105%, 76.3921568627451%, 1)" id="m2irjhqe55n"></rect><rect x="234.375" y="216.66666666666669" width="15.625" height="16.666666666666668" fill="hsla(210, 68.00000000000003%, 80.3921568627451%, 1)" id="atau51s9tjs"></rect><rect x="0" y="66.66666666666667" width="15.625" height="16.666666666666668" fill="hsla(0, 100%, 50%, 1)" id="gqgflkln2vm"></rect><rect x="15.625" y="66.66666666666667" width="15.625" height="16.666666666666668" fill="hsla(352, 100%, 50%, 1)" id="r49tzz3moon"></rect><rect x="31.25" y="66.66666666666667" width="15.625" height="16.666666666666668" fill="hsla(344, 100%, 50%, 1)" id="mpmetz7xiz"></rect><rect x="46.875" y="66.66666666666667" width="15.625" height="16.666666666666668" fill="hsla(336, 100%, 50%, 1)" id="mu2twi7l13"></rect><rect x="62.5" y="66.66666666666667" width="15.625" height="16.666666666666668" fill="hsla(328, 100%, 50%, 1)" id="lpc532io8y"></rect><rect x="78.125" y="66.66666666666667" width="15.625" height="16.666666666666668" fill="hsla(320, 100%, 50%, 1)" id="0052yslydiiid"></rect><rect x="93.75" y="66.66666666666667" width="15.625" height="16.666666666666668" fill="hsla(312, 100%, 50%, 1)" id="jy0nmxok81b"></rect><rect x="109.375" y="66.66666666666667" width="15.625" height="16.666666666666668" fill="hsla(304, 100%, 50%, 1)" id="n73cmz6mm9l"></rect><rect x="125" y="66.66666666666667" width="15.625" height="16.666666666666668" fill="hsla(296, 100%, 50%, 1)" id="inbzjbvkzer"></rect><rect x="140.625" y="66.66666666666667" width="15.625" height="16.666666666666668" fill="hsla(288, 100%, 50%, 1)" id="145nxb7a0a6n"></rect><rect x="156.25" y="66.66666666666667" width="15.625" height="16.666666666666668" fill="hsla(280, 100%, 50%, 1)" id="u2gng8ho2ek"></rect><rect x="171.875" y="66.66666666666667" width="15.625" height="16.666666666666668" fill="hsla(272, 100%, 50%, 1)" id="utueulek1y"></rect><rect x="187.5" y="66.66666666666667" width="15.625" height="16.666666666666668" fill="hsla(264, 100%, 50%, 1)" id="diyxh4i8nya"></rect><rect x="203.125" y="66.66666666666667" width="15.625" height="16.666666666666668" fill="hsla(256, 100%, 50%, 1)" id="alkudjizj6c"></rect><rect x="218.75" y="66.66666666666667" width="15.625" height="16.666666666666668" fill="hsla(248, 100%, 50%, 1)" id="6874ggbjetm"></rect><rect x="234.375" y="66.66666666666667" width="15.625" height="16.666666666666668" fill="hsla(240, 100%, 50%, 1)" id="wvxsyx1igce"></rect><rect x="0" y="150" width="15.625" height="16.666666666666668" fill="hsla(0, 100%, 50%, 1)" id="x70ihm9yc8l"></rect><rect x="15.625" y="150" width="15.625" height="16.666666666666668" fill="hsla(344, 100%, 50%, 1)" id="w9dt938xjq"></rect><rect x="31.25" y="150" width="15.625" height="16.666666666666668" fill="hsla(328, 100%, 50%, 1)" id="5wt823w4u1e"></rect><rect x="46.875" y="150" width="15.625" height="16.666666666666668" fill="hsla(312, 100%, 50%, 1)" id="1cziu7rcb4e"></rect><rect x="62.5" y="150" width="15.625" height="16.666666666666668" fill="hsla(296, 100%, 50%, 1)" id="sdsqf8rb4wa"></rect><rect x="78.125" y="150" width="15.625" height="16.666666666666668" fill="hsla(280, 100%, 50%, 1)" id="lw0fxua4hv"></rect><rect x="93.75" y="150" width="15.625" height="16.666666666666668" fill="hsla(264, 100%, 50%, 1)" id="5lgbm1lrmu9"></rect><rect x="109.375" y="150" width="15.625" height="16.666666666666668" fill="hsla(248, 100%, 50%, 1)" id="9b60mdb68tl"></rect><rect x="125" y="150" width="15.625" height="16.666666666666668" fill="hsla(232, 100%, 50%, 1)" id="523ntj6gdno"></rect><rect x="140.625" y="150" width="15.625" height="16.666666666666668" fill="hsla(216, 100%, 50%, 1)" id="2zzoi5t4ow4"></rect><rect x="156.25" y="150" width="15.625" height="16.666666666666668" fill="hsla(200, 100%, 50%, 1)" id="jssqjz8kxis"></rect><rect x="171.875" y="150" width="15.625" height="16.666666666666668" fill="hsla(184, 100%, 50%, 1)" id="xe6loqzfz6q"></rect><rect x="187.5" y="150" width="15.625" height="16.666666666666668" fill="hsla(168, 100%, 50%, 1)" id="18ghw9s8423"></rect><rect x="203.125" y="150" width="15.625" height="16.666666666666668" fill="hsla(152, 100%, 50%, 1)" id="c5mynrwa6sf"></rect><rect x="218.75" y="150" width="15.625" height="16.666666666666668" fill="hsla(136, 100%, 50%, 1)" id="xxo10n65vbi"></rect><rect x="234.375" y="150" width="15.625" height="16.666666666666668" fill="hsla(120, 100%, 50%, 1)" id="m704cud1cj"></rect><rect x="0" y="233.33333333333334" width="15.625" height="16.666666666666668" fill="hsla(210, 65.3846153846154%, 20.392156862745097%, 1)" id="zw69bictocg"></rect><rect x="15.625" y="233.33333333333334" width="15.625" height="16.666666666666668" fill="hsla(210, 65.55897435897438%, 24.3921568627451%, 1)" id="l9zku0edy8b"></rect><rect x="31.25" y="233.33333333333334" width="15.625" height="16.666666666666668" fill="hsla(210, 65.73333333333335%, 28.3921568627451%, 1)" id="2z3bogz5y5o"></rect><rect x="46.875" y="233.33333333333334" width="15.625" height="16.666666666666668" fill="hsla(210, 65.90769230769233%, 32.392156862745104%, 1)" id="6h25xnun3i"></rect><rect x="62.5" y="233.33333333333334" width="15.625" height="16.666666666666668" fill="hsla(210, 66.0820512820513%, 36.392156862745104%, 1)" id="ab6hzd3dbf"></rect><rect x="78.125" y="233.33333333333334" width="15.625" height="16.666666666666668" fill="hsla(210, 66.25641025641028%, 40.3921568627451%, 1)" id="15cflj9m12m"></rect><rect x="93.75" y="233.33333333333334" width="15.625" height="16.666666666666668" fill="hsla(210, 66.43076923076924%, 44.392156862745104%, 1)" id="zosimki7rh"></rect><rect x="109.375" y="233.33333333333334" width="15.625" height="16.666666666666668" fill="hsla(210, 66.60512820512822%, 48.392156862745104%, 1)" id="h5vcxw0ffc5"></rect><rect x="125" y="233.33333333333334" width="15.625" height="16.666666666666668" fill="hsla(210, 66.77948717948719%, 52.3921568627451%, 1)" id="5lk3euypo7h"></rect><rect x="140.625" y="233.33333333333334" width="15.625" height="16.666666666666668" fill="hsla(210, 66.95384615384617%, 56.392156862745104%, 1)" id="8odp65ki2oh"></rect><rect x="156.25" y="233.33333333333334" width="15.625" height="16.666666666666668" fill="hsla(210, 67.12820512820515%, 60.392156862745104%, 1)" id="j9x0tgxh6w"></rect><rect x="171.875" y="233.33333333333334" width="15.625" height="16.666666666666668" fill="hsla(210, 67.30256410256412%, 64.39215686274511%, 1)" id="l1a5vl3emg"></rect><rect x="187.5" y="233.33333333333334" width="15.625" height="16.666666666666668" fill="hsla(210, 67.4769230769231%, 68.39215686274511%, 1)" id="ek5khvd54i"></rect><rect x="203.125" y="233.33333333333334" width="15.625" height="16.666666666666668" fill="hsla(210, 67.65128205128208%, 72.39215686274511%, 1)" id="19c5ijxnn0p"></rect><rect x="218.75" y="233.33333333333334" width="15.625" height="16.666666666666668" fill="hsla(210, 67.82564102564105%, 76.3921568627451%, 1)" id="ak7w09bm4ks"></rect><rect x="234.375" y="233.33333333333334" width="15.625" height="16.666666666666668" fill="hsla(210, 68.00000000000003%, 80.3921568627451%, 1)" id="udutzuwuyp"></rect></svg>