<svg id="root" width="250px" height="250px" xmlns="http://www.w3.org/2000/svg" xlink="http://www.w3.org/1999/xlink" version="1.1"><defs id="peu5g9k6qb"></defs><rect x="0" y="0" width="15.625" height="16.666666666666668" fill="rgba(255, 0, 0, 1)" id="klcg96d4aws"></rect><rect x="15.625" y="0" width="15.625" height="16.666666666666668" fill="rgba(238, 0, 17, 1)" id="18z8c4i9yek"></rect><rect x="31.25" y="0" width="15.625" height="16.666666666666668" fill="rgba(221, 0, 34, 1)" id="8nrmcduzq6w"></rect><rect x="46.875" y="0" width="15.625" height="16.666666666666668" fill="rgba(204, 0, 51, 1)" id="f4aqxptc61f"></rect><rect x="62.5" y="0" width="15.625" height="16.666666666666668" fill="rgba(187, 0, 68, 1)" id="gla4anj6pyg"></rect><rect x="78.125" y="0" width="15.625" height="16.666666666666668" fill="rgba(170, 0, 85, 1)" id="4xo80sys1gk"></rect><rect x="93.75" y="0" width="15.625" height="16.666666666666668" fill="rgba(153, 0, 102, 1)" id="kdzy1kfme3"></rect><rect x="109.375" y="0" width="15.625" height="16.666666666666668" fill="rgba(136, 0, 119, 1)" id="coqc2wnd62d"></rect><rect x="125" y="0" width="15.625" height="16.666666666666668" fill="rgba(119, 0, 136, 1)" id="waugtcc7zc"></rect><rect x="140.625" y="0" width="15.625" height="16.666666666666668" fill="rgba(102, 0, 153, 1)" id="javwkykkofh"></rect><rect x="156.25" y="0" width="15.625" height="16.666666666666668" fill="rgba(85, 0, 170, 1)" id="bbis4xc9to8"></rect><rect x="171.875" y="0" width="15.625" height="16.666666666666668" fill="rgba(68, 0, 187, 1)" id="7ggt91magt"></rect><rect x="187.5" y="0" width="15.625" height="16.666666666666668" fill="rgba(51, 0, 204, 1)" id="pke9vg7f6ej"></rect><rect x="203.125" y="0" width="15.625" height="16.666666666666668" fill="rgba(34, 0, 221, 1)" id="4k101sd36jy"></rect><rect x="218.75" y="0" width="15.625" height="16.666666666666668" fill="rgba(17, 0, 238, 1)" id="9xhmkzvj32e"></rect><rect x="234.375" y="0" width="15.625" height="16.666666666666668" fill="rgba(0, 0, 255, 1)" id="idkhbe6b2c"></rect><rect x="0" y="83.33333333333334" width="15.625" height="16.666666666666668" fill="rgba(255, 0, 0, 1)" id="o65bah24np"></rect><rect x="15.625" y="83.33333333333334" width="15.625" height="16.666666666666668" fill="rgba(238, 17, 0, 1)" id="q8xk3htdlx"></rect><rect x="31.25" y="83.33333333333334" width="15.625" height="16.666666666666668" fill="rgba(221, 34, 0, 1)" id="5nm8u5219aa"></rect><rect x="46.875" y="83.33333333333334" width="15.625" height="16.666666666666668" fill="rgba(204, 51, 0, 1)" id="lwy5sibt42"></rect><rect x="62.5" y="83.33333333333334" width="15.625" height="16.666666666666668" fill="rgba(187, 68, 0, 1)" id="6d8tdqmr48j"></rect><rect x="78.125" y="83.33333333333334" width="15.625" height="16.666666666666668" fill="rgba(170, 85, 0, 1)" id="ant4y0ow2dt"></rect><rect x="93.75" y="83.33333333333334" width="15.625" height="16.666666666666668" fill="rgba(153, 102, 0, 1)" id="ld8qiltq3q"></rect><rect x="109.375" y="83.33333333333334" width="15.625" height="16.666666666666668" fill="rgba(136, 119, 0, 1)" id="qo029eaj3b"></rect><rect x="125" y="83.33333333333334" width="15.625" height="16.666666666666668" fill="rgba(119, 136, 0, 1)" id="rlvvcuw5q2o"></rect><rect x="140.625" y="83.33333333333334" width="15.625" height="16.666666666666668" fill="rgba(102, 153, 0, 1)" id="ycvo6ns8ssp"></rect><rect x="156.25" y="83.33333333333334" width="15.625" height="16.666666666666668" fill="rgba(85, 170, 0, 1)" id="mn2z1955scd"></rect><rect x="171.875" y="83.33333333333334" width="15.625" height="16.666666666666668" fill="rgba(68, 187, 0, 1)" id="uxx74pq4e5"></rect><rect x="187.5" y="83.33333333333334" width="15.625" height="16.666666666666668" fill="rgba(51, 204, 0, 1)" id="eql418ufngr"></rect><rect x="203.125" y="83.33333333333334" width="15.625" height="16.666666666666668" fill="rgba(34, 221, 0, 1)" id="r795lqlac3e"></rect><rect x="218.75" y="83.33333333333334" width="15.625" height="16.666666666666668" fill="rgba(17, 238, 0, 1)" id="pcjacb50js"></rect><rect x="234.375" y="83.33333333333334" width="15.625" height="16.666666666666668" fill="rgba(0, 255, 0, 1)" id="l93xzmroykh"></rect><rect x="0" y="166.66666666666669" width="15.625" height="16.666666666666668" fill="rgba(18, 52, 86, 1)" id="5axfdyv3nf"></rect><rect x="15.625" y="166.66666666666669" width="15.625" height="16.666666666666668" fill="rgba(28, 62, 96, 1)" id="5yj18uckn1n"></rect><rect x="31.25" y="166.66666666666669" width="15.625" height="16.666666666666668" fill="rgba(38, 72, 106, 1)" id="qroofsj48kf"></rect><rect x="46.875" y="166.66666666666669" width="15.625" height="16.666666666666668" fill="rgba(49, 83, 117, 1)" id="rufeuyo8ulh"></rect><rect x="62.5" y="166.66666666666669" width="15.625" height="16.666666666666668" fill="rgba(59, 93, 127, 1)" id="oghjrhnbwa"></rect><rect x="78.125" y="166.66666666666669" width="15.625" height="16.666666666666668" fill="rgba(69, 103, 137, 1)" id="2ptmubux78t"></rect><rect x="93.75" y="166.66666666666669" width="15.625" height="16.666666666666668" fill="rgba(79, 113, 147, 1)" id="gknqsp62t8n"></rect><rect x="109.375" y="166.66666666666669" width="15.625" height="16.666666666666668" fill="rgba(89, 123, 157, 1)" id="12n3mfjdp9g"></rect><rect x="125" y="166.66666666666669" width="15.625" height="16.666666666666668" fill="rgba(100, 134, 168, 1)" id="9leqjuj0jnu"></rect><rect x="140.625" y="166.66666666666669" width="15.625" height="16.666666666666668" fill="rgba(110, 144, 178, 1)" id="4q97u9mg4ta"></rect><rect x="156.25" y="166.66666666666669" width="15.625" height="16.666666666666668" fill="rgba(120, 154, 188, 1)" id="4k4s03w1zit"></rect><rect x="171.875" y="166.66666666666669" width="15.625" height="16.666666666666668" fill="rgba(130, 164, 198, 1)" id="lxlsmzq8bbj"></rect><rect x="187.5" y="166.66666666666669" width="15.625" height="16.666666666666668" fill="rgba(140, 174, 208, 1)" id="26x5ez14f0o"></rect><rect x="203.125" y="166.66666666666669" width="15.625" height="16.666666666666668" fill="rgba(151, 185, 219, 1)" id="aku5ybpvvvr"></rect><rect x="218.75" y="166.66666666666669" width="15.625" height="16.666666666666668" fill="rgba(161, 195, 229, 1)" id="wfj3x5a0ncs"></rect><rect x="234.375" y="166.66666666666669" width="15.625" height="16.666666666666668" fill="rgba(171, 205, 239, 1)" id="7je59a6eks9"></rect><rect x="0" y="16.666666666666668" width="15.625" height="16.666666666666668" fill="hsla(0, 100%, 50%, 1)" id="lw5xw3seulj"></rect><rect x="15.625" y="16.666666666666668" width="15.625" height="16.666666666666668" fill="hsla(352, 100%, 50%, 1)" id="aoap5vejexw"></rect><rect x="31.25" y="16.666666666666668" width="15.625" height="16.666666666666668" fill="hsla(344, 100%, 50%, 1)" id="udf2r54daaq"></rect><rect x="46.875" y="16.666666666666668" width="15.625" height="16.666666666666668" fill="hsla(336, 100%, 50%, 1)" id="h7vw99h7957"></rect><rect x="62.5" y="16.666666666666668" width="15.625" height="16.666666666666668" fill="hsla(328, 100%, 50%, 1)" id="easrg3v0p7i"></rect><rect x="78.125" y="16.666666666666668" width="15.625" height="16.666666666666668" fill="hsla(320, 100%, 50%, 1)" id="rh1bxhaa77j"></rect><rect x="93.75" y="16.666666666666668" width="15.625" height="16.666666666666668" fill="hsla(312, 100%, 50%, 1)" id="qxebm7q1h8"></rect><rect x="109.375" y="16.666666666666668" width="15.625" height="16.666666666666668" fill="hsla(304, 100%, 50%, 1)" id="dwqyeu8h09"></rect><rect x="125" y="16.666666666666668" width="15.625" height="16.666666666666668" fill="hsla(296, 100%, 50%, 1)" id="67iydujz1v2"></rect><rect x="140.625" y="16.666666666666668" width="15.625" height="16.666666666666668" fill="hsla(288, 100%, 50%, 1)" id="sq3mzxux9qi"></rect><rect x="156.25" y="16.666666666666668" width="15.625" height="16.666666666666668" fill="hsla(280, 100%, 50%, 1)" id="ndriw0n4jt"></rect><rect x="171.875" y="16.666666666666668" width="15.625" height="16.666666666666668" fill="hsla(272, 100%, 50%, 1)" id="8uesy4i04t"></rect><rect x="187.5" y="16.666666666666668" width="15.625" height="16.666666666666668" fill="hsla(264, 100%, 50%, 1)" id="lzobieeijxg"></rect><rect x="203.125" y="16.666666666666668" width="15.625" height="16.666666666666668" fill="hsla(256, 100%, 50%, 1)" id="7e261rqyzfb"></rect><rect x="218.75" y="16.666666666666668" width="15.625" height="16.666666666666668" fill="hsla(248, 100%, 50%, 1)" id="5a4x10vgedo"></rect><rect x="234.375" y="16.666666666666668" width="15.625" height="16.666666666666668" fill="hsla(240, 100%, 50%, 1)" id="ztg1ipzmzne"></rect><rect x="0" y="100" width="15.625" height="16.666666666666668" fill="hsla(0, 100%, 50%, 1)" id="qmxeep9913"></rect><rect x="15.625" y="100" width="15.625" height="16.666666666666668" fill="hsla(8, 100%, 50%, 1)" id="vx53fpzwc1"></rect><rect x="31.25" y="100" width="15.625" height="16.666666666666668" fill="hsla(16, 100%, 50%, 1)" id="hf10id40nyo"></rect><rect x="46.875" y="100" width="15.625" height="16.666666666666668" fill="hsla(24, 100%, 50%, 1)" id="sga0flxil9b"></rect><rect x="62.5" y="100" width="15.625" height="16.666666666666668" fill="hsla(32, 100%, 50%, 1)" id="ocoxd87gvw9"></rect><rect x="78.125" y="100" width="15.625" height="16.666666666666668" fill="hsla(40, 100%, 50%, 1)" id="9500yg96m6h"></rect><rect x="93.75" y="100" width="15.625" height="16.666666666666668" fill="hsla(48, 100%, 50%, 1)" id="w0ebd952g7i"></rect><rect x="109.375" y="100" width="15.625" height="16.666666666666668" fill="hsla(56, 100%, 50%, 1)" id="8di1xgvsm14"></rect><rect x="125" y="100" width="15.625" height="16.666666666666668" fill="hsla(64, 100%, 50%, 1)" id="fjhffsqtr1a"></rect><rect x="140.625" y="100" width="15.625" height="16.666666666666668" fill="hsla(72, 100%, 50%, 1)" id="i5nntccq79s"></rect><rect x="156.25" y="100" width="15.625" height="16.666666666666668" fill="hsla(80, 100%, 50%, 1)" id="59jutp0eaxp"></rect><rect x="171.875" y="100" width="15.625" height="16.666666666666668" fill="hsla(88, 100%, 50%, 1)" id="fvscj8fb1co"></rect><rect x="187.5" y="100" width="15.625" height="16.666666666666668" fill="hsla(96, 100%, 50%, 1)" id="qynxgypel3a"></rect><rect x="203.125" y="100" width="15.625" height="16.666666666666668" fill="hsla(104, 100%, 50%, 1)" id="vtumg3vmtpg"></rect><rect x="218.75" y="100" width="15.625" height="16.666666666666668" fill="hsla(112, 100%, 50%, 1)" id="jxd5i503m2"></rect><rect x="234.375" y="100" width="15.625" height="16.666666666666668" fill="hsla(120, 100%, 50%, 1)" id="i6d89ivr00d"></rect><rect x="0" y="183.33333333333334" width="15.625" height="16.666666666666668" fill="hsla(210, 65.3846153846154%, 20.392156862745097%, 1)" id="c8c54fgu3jk"></rect><rect x="15.625" y="183.33333333333334" width="15.625" height="16.666666666666668" fill="hsla(210, 65.55897435897438%, 24.3921568627451%, 1)" id="mdd74zlru"></rect><rect x="31.25" y="183.33333333333334" width="15.625" height="16.666666666666668" fill="hsla(210, 65.73333333333335%, 28.3921568627451%, 1)" id="0d3rsebfnfbl"></rect><rect x="46.875" y="183.33333333333334" width="15.625" height="16.666666666666668" fill="hsla(210, 65.90769230769233%, 32.392156862745104%, 1)" id="01zq4nc8wm32"></rect><rect x="62.5" y="183.33333333333334" width="15.625" height="16.666666666666668" fill="hsla(210, 66.0820512820513%, 36.392156862745104%, 1)" id="2ma1mh7z9fw"></rect><rect x="78.125" y="183.33333333333334" width="15.625" height="16.666666666666668" fill="hsla(210, 66.25641025641028%, 40.3921568627451%, 1)" id="vyano6cbpcl"></rect><rect x="93.75" y="183.33333333333334" width="15.625" height="16.666666666666668" fill="hsla(210, 66.43076923076924%, 44.392156862745104%, 1)" id="c7hiz0ejv9r"></rect><rect x="109.375" y="183.33333333333334" width="15.625" height="16.666666666666668" fill="hsla(210, 66.60512820512822%, 48.392156862745104%, 1)" id="jsgchwurwi"></rect><rect x="125" y="183.33333333333334" width="15.625" height="16.666666666666668" fill="hsla(210, 66.77948717948719%, 52.3921568627451%, 1)" id="h91jcr90p6m"></rect><rect x="140.625" y="183.33333333333334" width="15.625" height="16.666666666666668" fill="hsla(210, 66.95384615384617%, 56.392156862745104%, 1)" id="h65fa2iz7sa"></rect><rect x="156.25" y="183.33333333333334" width="15.625" height="16.666666666666668" fill="hsla(210, 67.12820512820515%, 60.392156862745104%, 1)" id="pk17ekhuo5"></rect><rect x="171.875" y="183.33333333333334" width="15.625" height="16.666666666666668" fill="hsla(210, 67.30256410256412%, 64.39215686274511%, 1)" id="002j73tgjbtep"></rect><rect x="187.5" y="183.33333333333334" width="15.625" height="16.666666666666668" fill="hsla(210, 67.4769230769231%, 68.39215686274511%, 1)" id="e8whqoeuk8l"></rect><rect x="203.125" y="183.33333333333334" width="15.625" height="16.666666666666668" fill="hsla(210, 67.65128205128208%, 72.39215686274511%, 1)" id="n1i3gysjih"></rect><rect x="218.75" y="183.33333333333334" width="15.625" height="16.666666666666668" fill="hsla(210, 67.82564102564105%, 76.3921568627451%, 1)" id="2z71o7assxx"></rect><rect x="234.375" y="183.33333333333334" width="15.625" height="16.666666666666668" fill="hsla(210, 68.00000000000003%, 80.3921568627451%, 1)" id="maiqd08u8x"></rect><rect x="0" y="33.333333333333336" width="15.625" height="16.666666666666668" fill="hsla(0, 100%, 50%, 1)" id="ceesusyz45a"></rect><rect x="15.625" y="33.333333333333336" width="15.625" height="16.666666666666668" fill="hsla(16, 100%, 50%, 1)" id="zt6au5akayb"></rect><rect x="31.25" y="33.333333333333336" width="15.625" height="16.666666666666668" fill="hsla(32, 100%, 50%, 1)" id="sfnszlo7nnq"></rect><rect x="46.875" y="33.333333333333336" width="15.625" height="16.666666666666668" fill="hsla(48, 100%, 50%, 1)" id="3srb7hg197s"></rect><rect x="62.5" y="33.333333333333336" width="15.625" height="16.666666666666668" fill="hsla(64, 100%, 50%, 1)" id="eo4qo973vl8"></rect><rect x="78.125" y="33.333333333333336" width="15.625" height="16.666666666666668" fill="hsla(80, 100%, 50%, 1)" id="q84fk5gpqcd"></rect><rect x="93.75" y="33.333333333333336" width="15.625" height="16.666666666666668" fill="hsla(96, 100%, 50%, 1)" id="9q8oshjxa3o"></rect><rect x="109.375" y="33.333333333333336" width="15.625" height="16.666666666666668" fill="hsla(112, 100%, 50%, 1)" id="6p2kptavl57"></rect><rect x="125" y="33.333333333333336" width="15.625" height="16.666666666666668" fill="hsla(128, 100%, 50%, 1)" id="vtg41rbnrg"></rect><rect x="140.625" y="33.333333333333336" width="15.625" height="16.666666666666668" fill="hsla(144, 100%, 50%, 1)" id="5y97a1d4m7n"></rect><rect x="156.25" y="33.333333333333336" width="15.625" height="16.666666666666668" fill="hsla(160, 100%, 50%, 1)" id="wopvfu9fyvc"></rect><rect x="171.875" y="33.333333333333336" width="15.625" height="16.666666666666668" fill="hsla(176, 100%, 50%, 1)" id="jycdffs7ek9"></rect><rect x="187.5" y="33.333333333333336" width="15.625" height="16.666666666666668" fill="hsla(192, 100%, 50%, 1)" id="1o45mnbn2xe"></rect><rect x="203.125" y="33.333333333333336" width="15.625" height="16.666666666666668" fill="hsla(208, 100%, 50%, 1)" id="ve8ymlrp3yb"></rect><rect x="218.75" y="33.333333333333336" width="15.625" height="16.666666666666668" fill="hsla(224, 100%, 50%, 1)" id="5cp7u3vn1bd"></rect><rect x="234.375" y="33.333333333333336" width="15.625" height="16.666666666666668" fill="hsla(240, 100%, 50%, 1)" id="fu5c04a524"></rect><rect x="0" y="116.66666666666667" width="15.625" height="16.666666666666668" fill="hsla(0, 100%, 50%, 1)" id="m64mi7tw59"></rect><rect x="15.625" y="116.66666666666667" width="15.625" height="16.666666666666668" fill="hsla(344, 100%, 50%, 1)" id="pux0ywhkfzo"></rect><rect x="31.25" y="116.66666666666667" width="15.625" height="16.666666666666668" fill="hsla(328, 100%, 50%, 1)" id="alo2k77y3km"></rect><rect x="46.875" y="116.66666666666667" width="15.625" height="16.666666666666668" fill="hsla(312, 100%, 50%, 1)" id="8btabs1ftxd"></rect><rect x="62.5" y="116.66666666666667" width="15.625" height="16.666666666666668" fill="hsla(296, 100%, 50%, 1)" id="7yk7tjeflpx"></rect><rect x="78.125" y="116.66666666666667" width="15.625" height="16.666666666666668" fill="hsla(280, 100%, 50%, 1)" id="bid6iphbuhi"></rect><rect x="93.75" y="116.66666666666667" width="15.625" height="16.666666666666668" fill="hsla(264, 100%, 50%, 1)" id="g3ua5hxc0i"></rect><rect x="109.375" y="116.66666666666667" width="15.625" height="16.666666666666668" fill="hsla(248, 100%, 50%, 1)" id="mayfqkhx51f"></rect><rect x="125" y="116.66666666666667" width="15.625" height="16.666666666666668" fill="hsla(232, 100%, 50%, 1)" id="pu4r9w57l4m"></rect><rect x="140.625" y="116.66666666666667" width="15.625" height="16.666666666666668" fill="hsla(216, 100%, 50%, 1)" id="fqbmgy5ql56"></rect><rect x="156.25" y="116.66666666666667" width="15.625" height="16.666666666666668" fill="hsla(200, 100%, 50%, 1)" id="swtmqh4tbm"></rect><rect x="171.875" y="116.66666666666667" width="15.625" height="16.666666666666668" fill="hsla(184, 100%, 50%, 1)" id="331achbshtb"></rect><rect x="187.5" y="116.66666666666667" width="15.625" height="16.666666666666668" fill="hsla(168, 100%, 50%, 1)" id="rz51vu5ykz9"></rect><rect x="203.125" y="116.66666666666667" width="15.625" height="16.666666666666668" fill="hsla(152, 100%, 50%, 1)" id="ok5f4jmtse"></rect><rect x="218.75" y="116.66666666666667" width="15.625" height="16.666666666666668" fill="hsla(136, 100%, 50%, 1)" id="11wv9kgwf5cg"></rect><rect x="234.375" y="116.66666666666667" width="15.625" height="16.666666666666668" fill="hsla(120, 100%, 50%, 1)" id="lnye9fgqt0c"></rect><rect x="0" y="200" width="15.625" height="16.666666666666668" fill="hsla(210, 65.3846153846154%, 20.392156862745097%, 1)" id="qcym50gla9"></rect><rect x="15.625" y="200" width="15.625" height="16.666666666666668" fill="hsla(210, 65.55897435897438%, 24.3921568627451%, 1)" id="qw9j3x15cm"></rect><rect x="31.25" y="200" width="15.625" height="16.666666666666668" fill="hsla(210, 65.73333333333335%, 28.3921568627451%, 1)" id="m86crcsh73d"></rect><rect x="46.875" y="200" width="15.625" height="16.666666666666668" fill="hsla(210, 65.90769230769233%, 32.392156862745104%, 1)" id="d5ypbonsai"></rect><rect x="62.5" y="200" width="15.625" height="16.666666666666668" fill="hsla(210, 66.0820512820513%, 36.392156862745104%, 1)" id="ujqlb7lr5r"></rect><rect x="78.125" y="200" width="15.625" height="16.666666666666668" fill="hsla(210, 66.25641025641028%, 40.3921568627451%, 1)" id="t4zshmy3pxt"></rect><rect x="93.75" y="200" width="15.625" height="16.666666666666668" fill="hsla(210, 66.43076923076924%, 44.392156862745104%, 1)" id="kszmi9w1uun"></rect><rect x="109.375" y="200" width="15.625" height="16.666666666666668" fill="hsla(210, 66.60512820512822%, 48.392156862745104%, 1)" id="jvgn9fnxeb"></rect><rect x="125" y="200" width="15.625" height="16.666666666666668" fill="hsla(210, 66.77948717948719%, 52.3921568627451%, 1)" id="pcmpuv7cku"></rect><rect x="140.625" y="200" width="15.625" height="16.666666666666668" fill="hsla(210, 66.95384615384617%, 56.392156862745104%, 1)" id="tb66qvjmad"></rect><rect x="156.25" y="200" width="15.625" height="16.666666666666668" fill="hsla(210, 67.12820512820515%, 60.392156862745104%, 1)" id="m8u7rokmbh"></rect><rect x="171.875" y="200" width="15.625" height="16.666666666666668" fill="hsla(210, 67.30256410256412%, 64.39215686274511%, 1)" id="681idswunfx"></rect><rect x="187.5" y="200" width="15.625" height="16.666666666666668" fill="hsla(210, 67.4769230769231%, 68.39215686274511%, 1)" id="wvxqla1nng"></rect><rect x="203.125" y="200" width="15.625" height="16.666666666666668" fill="hsla(210, 67.65128205128208%, 72.39215686274511%, 1)" id="pp5lohgpgll"></rect><rect x="218.75" y="200" width="15.625" height="16.666666666666668" fill="hsla(210, 67.82564102564105%, 76.3921568627451%, 1)" id="dxiyowuiqxa"></rect><rect x="234.375" y="200" width="15.625" height="16.666666666666668" fill="hsla(210, 68.00000000000003%, 80.3921568627451%, 1)" id="r2t2xfb946l"></rect><rect x="0" y="50" width="15.625" height="16.666666666666668" fill="hsla(0, 100%, 50%, 1)" id="c0aohwdp3xl"></rect><rect x="15.625" y="50" width="15.625" height="16.666666666666668" fill="hsla(16, 100%, 50%, 1)" id="0mtq8qqxkqv"></rect><rect x="31.25" y="50" width="15.625" height="16.666666666666668" fill="hsla(32, 100%, 50%, 1)" id="yad3kl6nt7c"></rect><rect x="46.875" y="50" width="15.625" height="16.666666666666668" fill="hsla(48, 100%, 50%, 1)" id="ub7n4e3yew"></rect><rect x="62.5" y="50" width="15.625" height="16.666666666666668" fill="hsla(64, 100%, 50%, 1)" id="t4d2iy5f0oa"></rect><rect x="78.125" y="50" width="15.625" height="16.666666666666668" fill="hsla(80, 100%, 50%, 1)" id="tlwvu655y3"></rect><rect x="93.75" y="50" width="15.625" height="16.666666666666668" fill="hsla(96, 100%, 50%, 1)" id="4qi53nlejzy"></rect><rect x="109.375" y="50" width="15.625" height="16.666666666666668" fill="hsla(112, 100%, 50%, 1)" id="a6reyl8zx0o"></rect><rect x="125" y="50" width="15.625" height="16.666666666666668" fill="hsla(128, 100%, 50%, 1)" id="wg390mmvabf"></rect><rect x="140.625" y="50" width="15.625" height="16.666666666666668" fill="hsla(144, 100%, 50%, 1)" id="bczctm932ki"></rect><rect x="156.25" y="50" width="15.625" height="16.666666666666668" fill="hsla(160, 100%, 50%, 1)" id="4glk5t34ttq"></rect><rect x="171.875" y="50" width="15.625" height="16.666666666666668" fill="hsla(176, 100%, 50%, 1)" id="122icyojrftj"></rect><rect x="187.5" y="50" width="15.625" height="16.666666666666668" fill="hsla(192, 100%, 50%, 1)" id="0klwbtlhpgk"></rect><rect x="203.125" y="50" width="15.625" height="16.666666666666668" fill="hsla(208, 100%, 50%, 1)" id="1k0aqef4yfs"></rect><rect x="218.75" y="50" width="15.625" height="16.666666666666668" fill="hsla(224, 100%, 50%, 1)" id="6uo1e0m40bk"></rect><rect x="234.375" y="50" width="15.625" height="16.666666666666668" fill="hsla(240, 100%, 50%, 1)" id="mnhz26olihl"></rect><rect x="0" y="133.33333333333334" width="15.625" height="16.666666666666668" fill="hsla(0, 100%, 50%, 1)" id="vil2xq5inue"></rect><rect x="15.625" y="133.33333333333334" width="15.625" height="16.666666666666668" fill="hsla(8, 100%, 50%, 1)" id="9yimip8y7fs"></rect><rect x="31.25" y="133.33333333333334" width="15.625" height="16.666666666666668" fill="hsla(16, 100%, 50%, 1)" id="etxxa05wnu"></rect><rect x="46.875" y="133.33333333333334" width="15.625" height="16.666666666666668" fill="hsla(24, 100%, 50%, 1)" id="p2l1zwwldk"></rect><rect x="62.5" y="133.33333333333334" width="15.625" height="16.666666666666668" fill="hsla(32, 100%, 50%, 1)" id="ve2a1ys9roi"></rect><rect x="78.125" y="133.33333333333334" width="15.625" height="16.666666666666668" fill="hsla(40, 100%, 50%, 1)" id="un40k6sfo3j"></rect><rect x="93.75" y="133.33333333333334" width="15.625" height="16.666666666666668" fill="hsla(48, 100%, 50%, 1)" id="t311d1nw4ch"></rect><rect x="109.375" y="133.33333333333334" width="15.625" height="16.666666666666668" fill="hsla(56, 100%, 50%, 1)" id="mp9ba7o2mqs"></rect><rect x="125" y="133.33333333333334" width="15.625" height="16.666666666666668" fill="hsla(64, 100%, 50%, 1)" id="9nrocntrlf7"></rect><rect x="140.625" y="133.33333333333334" width="15.625" height="16.666666666666668" fill="hsla(72, 100%, 50%, 1)" id="f0cpe3992l9"></rect><rect x="156.25" y="133.33333333333334" width="15.625" height="16.666666666666668" fill="hsla(80, 100%, 50%, 1)" id="eqm7b0vy1hv"></rect><rect x="171.875" y="133.33333333333334" width="15.625" height="16.666666666666668" fill="hsla(88, 100%, 50%, 1)" id="hb5d9cute4"></rect><rect x="187.5" y="133.33333333333334" width="15.625" height="16.666666666666668" fill="hsla(96, 100%, 50%, 1)" id="4nt4otkg1xi"></rect><rect x="203.125" y="133.33333333333334" width="15.625" height="16.666666666666668" fill="hsla(104, 100%, 50%, 1)" id="o8w04m4g0zj"></rect><rect x="218.75" y="133.33333333333334" width="15.625" height="16.666666666666668" fill="hsla(112, 100%, 50%, 1)" id="r4gsuyj91p"></rect><rect x="234.375" y="133.33333333333334" width="15.625" height="16.666666666666668" fill="hsla(120, 100%, 50%, 1)" id="7qqaxozcjsx"></rect><rect x="0" y="216.66666666666669" width="15.625" height="16.666666666666668" fill="hsla(210, 65.3846153846154%, 20.392156862745097%, 1)" id="driic80xwcr"></rect><rect x="15.625" y="216.66666666666669" width="15.625" height="16.666666666666668" fill="hsla(210, 65.55897435897438%, 24.3921568627451%, 1)" id="1tuy7sc5vlo"></rect><rect x="31.25" y="216.66666666666669" width="15.625" height="16.666666666666668" fill="hsla(210, 65.73333333333335%, 28.3921568627451%, 1)" id="dnwgu1c4x5v"></rect><rect x="46.875" y="216.66666666666669" width="15.625" height="16.666666666666668" fill="hsla(210, 65.90769230769233%, 32.392156862745104%, 1)" id="tdqay19isy"></rect><rect x="62.5" y="216.66666666666669" width="15.625" height="16.666666666666668" fill="hsla(210, 66.0820512820513%, 36.392156862745104%, 1)" id="en0f6owjfp4"></rect><rect x="78.125" y="216.66666666666669" width="15.625" height="16.666666666666668" fill="hsla(210, 66.25641025641028%, 40.3921568627451%, 1)" id="gww2tpwziz"></rect><rect x="93.75" y="216.66666666666669" width="15.625" height="16.666666666666668" fill="hsla(210, 66.43076923076924%, 44.392156862745104%, 1)" id="emywos9nycm"></rect><rect x="109.375" y="216.66666666666669" width="15.625" height="16.666666666666668" fill="hsla(210, 66.60512820512822%, 48.392156862745104%, 1)" id="7wxkh9c5br9"></rect><rect x="125" y="216.66666666666669" width="15.625" height="16.666666666666668" fill="hsla(210, 66.77948717948719%, 52.3921568627451%, 1)" id="4k13rb25nzx"></rect><rect x="140.625" y="216.66666666666669" width="15.625" height="16.666666666666668" fill="hsla(210, 66.95384615384617%, 56.392156862745104%, 1)" id="i4aoo85ugq"></rect><rect x="156.25" y="216.66666666666669" width="15.625" height="16.666666666666668" fill="hsla(210, 67.12820512820515%, 60.392156862745104%, 1)" id="lm7759kj008"></rect><rect x="171.875" y="216.66666666666669" width="15.625" height="16.666666666666668" fill="hsla(210, 67.30256410256412%, 64.39215686274511%, 1)" id="uws3j0i5rcf"></rect><rect x="187.5" y="216.66666666666669" width="15.625" height="16.666666666666668" fill="hsla(210, 67.4769230769231%, 68.39215686274511%, 1)" id="r3xtghhim6l"></rect><rect x="203.125" y="216.66666666666669" width="15.625" height="16.666666666666668" fill="hsla(210, 67.65128205128208%, 72.39215686274511%, 1)" id="qlb9mlymhog"></rect><rect x="218.75" y="216.66666666666669" width="15.625" height="16.666666666666668" fill="hsla(210, 67.82564102564105%, 76.3921568627451%, 1)" id="ku3butzwwy"></rect><rect x="234.375" y="216.66666666666669" width="15.625" height="16.666666666666668" fill="hsla(210, 68.00000000000003%, 80.3921568627451%, 1)" id="g9b9iwknppi"></rect><rect x="0" y="66.66666666666667" width="15.625" height="16.666666666666668" fill="hsla(0, 100%, 50%, 1)" id="cgacqedel3t"></rect><rect x="15.625" y="66.66666666666667" width="15.625" height="16.666666666666668" fill="hsla(352, 100%, 50%, 1)" id="lycxwfs76k"></rect><rect x="31.25" y="66.66666666666667" width="15.625" height="16.666666666666668" fill="hsla(344, 100%, 50%, 1)" id="2s0skytf4yl"></rect><rect x="46.875" y="66.66666666666667" width="15.625" height="16.666666666666668" fill="hsla(336, 100%, 50%, 1)" id="8lqwonqxjof"></rect><rect x="62.5" y="66.66666666666667" width="15.625" height="16.666666666666668" fill="hsla(328, 100%, 50%, 1)" id="umifjwepzu"></rect><rect x="78.125" y="66.66666666666667" width="15.625" height="16.666666666666668" fill="hsla(320, 100%, 50%, 1)" id="5352ir3geng"></rect><rect x="93.75" y="66.66666666666667" width="15.625" height="16.666666666666668" fill="hsla(312, 100%, 50%, 1)" id="m1htr2ayd99"></rect><rect x="109.375" y="66.66666666666667" width="15.625" height="16.666666666666668" fill="hsla(304, 100%, 50%, 1)" id="k9c9wqiyaa"></rect><rect x="125" y="66.66666666666667" width="15.625" height="16.666666666666668" fill="hsla(296, 100%, 50%, 1)" id="zd2hmwaqwf"></rect><rect x="140.625" y="66.66666666666667" width="15.625" height="16.666666666666668" fill="hsla(288, 100%, 50%, 1)" id="5of9gmnokpg"></rect><rect x="156.25" y="66.66666666666667" width="15.625" height="16.666666666666668" fill="hsla(280, 100%, 50%, 1)" id="659fm5da8j2"></rect><rect x="171.875" y="66.66666666666667" width="15.625" height="16.666666666666668" fill="hsla(272, 100%, 50%, 1)" id="t30nywjk0wb"></rect><rect x="187.5" y="66.66666666666667" width="15.625" height="16.666666666666668" fill="hsla(264, 100%, 50%, 1)" id="dwibqu28tjr"></rect><rect x="203.125" y="66.66666666666667" width="15.625" height="16.666666666666668" fill="hsla(256, 100%, 50%, 1)" id="xquzobh6b5e"></rect><rect x="218.75" y="66.66666666666667" width="15.625" height="16.666666666666668" fill="hsla(248, 100%, 50%, 1)" id="595srqk54f5"></rect><rect x="234.375" y="66.66666666666667" width="15.625" height="16.666666666666668" fill="hsla(240, 100%, 50%, 1)" id="t20t9z43mkl"></rect><rect x="0" y="150" width="15.625" height="16.666666666666668" fill="hsla(0, 100%, 50%, 1)" id="avgc2s24nqg"></rect><rect x="15.625" y="150" width="15.625" height="16.666666666666668" fill="hsla(344, 100%, 50%, 1)" id="fk8vcr4ltj7"></rect><rect x="31.25" y="150" width="15.625" height="16.666666666666668" fill="hsla(328, 100%, 50%, 1)" id="crqneh680h"></rect><rect x="46.875" y="150" width="15.625" height="16.666666666666668" fill="hsla(312, 100%, 50%, 1)" id="bpcuapd5web"></rect><rect x="62.5" y="150" width="15.625" height="16.666666666666668" fill="hsla(296, 100%, 50%, 1)" id="o960cn8nqkh"></rect><rect x="78.125" y="150" width="15.625" height="16.666666666666668" fill="hsla(280, 100%, 50%, 1)" id="fxd329nb1o"></rect><rect x="93.75" y="150" width="15.625" height="16.666666666666668" fill="hsla(264, 100%, 50%, 1)" id="gaykdk8w6n8"></rect><rect x="109.375" y="150" width="15.625" height="16.666666666666668" fill="hsla(248, 100%, 50%, 1)" id="gmrtwvfqv3t"></rect><rect x="125" y="150" width="15.625" height="16.666666666666668" fill="hsla(232, 100%, 50%, 1)" id="a0o6djicpg6"></rect><rect x="140.625" y="150" width="15.625" height="16.666666666666668" fill="hsla(216, 100%, 50%, 1)" id="9hsgg2bor4n"></rect><rect x="156.25" y="150" width="15.625" height="16.666666666666668" fill="hsla(200, 100%, 50%, 1)" id="qykwu2p3ic"></rect><rect x="171.875" y="150" width="15.625" height="16.666666666666668" fill="hsla(184, 100%, 50%, 1)" id="3ydr5wqm2eu"></rect><rect x="187.5" y="150" width="15.625" height="16.666666666666668" fill="hsla(168, 100%, 50%, 1)" id="xyuu065n3l"></rect><rect x="203.125" y="150" width="15.625" height="16.666666666666668" fill="hsla(152, 100%, 50%, 1)" id="7kxexiwprtl"></rect><rect x="218.75" y="150" width="15.625" height="16.666666666666668" fill="hsla(136, 100%, 50%, 1)" id="jgxul7bk62"></rect><rect x="234.375" y="150" width="15.625" height="16.666666666666668" fill="hsla(120, 100%, 50%, 1)" id="r5nycfjfdqb"></rect><rect x="0" y="233.33333333333334" width="15.625" height="16.666666666666668" fill="hsla(210, 65.3846153846154%, 20.392156862745097%, 1)" id="x0u9r8j8kp"></rect><rect x="15.625" y="233.33333333333334" width="15.625" height="16.666666666666668" fill="hsla(210, 65.55897435897438%, 24.3921568627451%, 1)" id="j9e84589fl"></rect><rect x="31.25" y="233.33333333333334" width="15.625" height="16.666666666666668" fill="hsla(210, 65.73333333333335%, 28.3921568627451%, 1)" id="f4o1371skks"></rect><rect x="46.875" y="233.33333333333334" width="15.625" height="16.666666666666668" fill="hsla(210, 65.90769230769233%, 32.392156862745104%, 1)" id="zuguuazc7vn"></rect><rect x="62.5" y="233.33333333333334" width="15.625" height="16.666666666666668" fill="hsla(210, 66.0820512820513%, 36.392156862745104%, 1)" id="khxv98f6pkr"></rect><rect x="78.125" y="233.33333333333334" width="15.625" height="16.666666666666668" fill="hsla(210, 66.25641025641028%, 40.3921568627451%, 1)" id="zgect4t5h3n"></rect><rect x="93.75" y="233.33333333333334" width="15.625" height="16.666666666666668" fill="hsla(210, 66.43076923076924%, 44.392156862745104%, 1)" id="nriui13x7yf"></rect><rect x="109.375" y="233.33333333333334" width="15.625" height="16.666666666666668" fill="hsla(210, 66.60512820512822%, 48.392156862745104%, 1)" id="jjg0nbjfs2"></rect><rect x="125" y="233.33333333333334" width="15.625" height="16.666666666666668" fill="hsla(210, 66.77948717948719%, 52.3921568627451%, 1)" id="sge3ze8moxd"></rect><rect x="140.625" y="233.33333333333334" width="15.625" height="16.666666666666668" fill="hsla(210, 66.95384615384617%, 56.392156862745104%, 1)" id="74kc62vr59d"></rect><rect x="156.25" y="233.33333333333334" width="15.625" height="16.666666666666668" fill="hsla(210, 67.12820512820515%, 60.392156862745104%, 1)" id="ztptxibxbu"></rect><rect x="171.875" y="233.33333333333334" width="15.625" height="16.666666666666668" fill="hsla(210, 67.30256410256412%, 64.39215686274511%, 1)" id="cjutizb440v"></rect><rect x="187.5" y="233.33333333333334" width="15.625" height="16.666666666666668" fill="hsla(210, 67.4769230769231%, 68.39215686274511%, 1)" id="sxiibznjv"></rect><rect x="203.125" y="233.33333333333334" width="15.625" height="16.666666666666668" fill="hsla(210, 67.65128205128208%, 72.39215686274511%, 1)" id="djmyopgrr9q"></rect><rect x="218.75" y="233.33333333333334" width="15.625" height="16.666666666666668" fill="hsla(210, 67.82564102564105%, 76.3921568627451%, 1)" id="e3zszrjvjur"></rect><rect x="234.375" y="233.33333333333334" width="15.625" height="16.666666666666668" fill="hsla(210, 68.00000000000003%, 80.3921568627451%, 1)" id="6hw4rybg5w3"></rect></svg>