<svg id="root" width="250px" height="250px" xmlns="http://www.w3.org/2000/svg" xlink="http://www.w3.org/1999/xlink" version="1.1"><defs id="k5qv460doae"></defs><circle cx="40" cy="40" r="25" fill="rgba(191, 191, 191, 1)" stroke="rgba(32, 32, 32, 1)" stroke-width="5" id="562i2z64jxl"></circle><ellipse cx="80" cy="40" rx="25" ry="10" fill="rgba(223, 223, 223, 1)" stroke="rgba(64, 64, 64, 1)" stroke-width="7.5" id="yuer58m5pd8"></ellipse><rect x="95" y="15" width="25" height="50" fill="rgba(96, 96, 96, 1)" stroke="rgba(159, 159, 159, 1)" stroke-width="2.5" id="nwghxqkgvap"></rect><line x1="130" y1="15" x2="185" y2="65" stroke="rgba(171, 205, 239, 1)" stroke-width="5" id="0w5gdkfigbi9"></line><line x1="130" y1="65" x2="185" y2="15" stroke="rgba(18, 52, 86, 1)" stroke-width="5" id="bci14607o1m"></line><line x1="200" y1="15" x2="200" y2="65" stroke="rgba(255, 0, 0, 1)" stroke-width="5" id="tr288ds149g"></line><line x1="215" y1="15" x2="215" y2="65" stroke="rgba(0, 255, 0, 1)" stroke-width="5" id="z2x4e9cxlb"></line><line x1="230" y1="15" x2="230" y2="65" stroke="rgba(0, 0, 255, 1)" stroke-width="5" id="t9lrruwgyxj"></line><path d="M 15,80,l 20,5,l 5,20,l 20,5,l 20,-5,l 5,-20,l 20,-5,l -10,40,l -35,10,l -35,-10,Z" fill="rgba(255, 255, 0, 1)" stroke="rgba(0, 255, 255, 1)" stroke-width="2.5" id="zo1ak1gzp2"></path><path d="M 120,80,l 40,50,l 10,0,l 0,-50,l -10,0,l -40,50,l 10,0,l 30,-40,l 0,30,l -30,-40,Z" fill-rule="nonzero" fill="rgba(119, 255, 0, 1)" stroke="rgba(0, 119, 255, 1)" stroke-width="2.5" id="egjucgqynd8"></path><path d="M 180,80,l 40,50,l 10,0,l 0,-50,l -10,0,l -40,50,l 10,0,l 30,-40,l 0,30,l -30,-40,Z" fill-rule="evenodd" fill="rgba(255, 0, 119, 1)" stroke="rgba(119, 0, 255, 1)" stroke-width="2.5" id="zdt2k9mmbgq"></path><polygon points="20,150,20,235,125,210,100,170" fill="rgba(255, 0, 255, 1)" stroke="rgba(119, 0, 119, 1)" stroke-width="5" id="k34ni2s32ap"></polygon><polyline points="230,150,230,235,150,210,125,170" fill="rgba(255, 119, 0, 1)" stroke="rgba(0, 255, 119, 1)" stroke-width="5" id="gxzkxdls7xj"></polyline></svg>