<svg id="root" width="250px" height="250px" xmlns="http://www.w3.org/2000/svg" xlink="http://www.w3.org/1999/xlink" version="1.1"><defs id="6jx62qznhw4"></defs><circle cx="40" cy="40" r="25" fill="rgba(191, 191, 191, 1)" stroke="rgba(32, 32, 32, 1)" stroke-width="5" id="66bqfw6c2dd"></circle><ellipse cx="80" cy="40" rx="25" ry="10" fill="rgba(223, 223, 223, 1)" stroke="rgba(64, 64, 64, 1)" stroke-width="7.5" id="uop0m8pymxe"></ellipse><rect x="95" y="15" width="25" height="50" fill="rgba(96, 96, 96, 1)" stroke="rgba(159, 159, 159, 1)" stroke-width="2.5" id="91rzqhmwcul"></rect><line x1="130" y1="15" x2="185" y2="65" stroke="rgba(171, 205, 239, 1)" stroke-width="5" id="ac9wnjg71hv"></line><line x1="130" y1="65" x2="185" y2="15" stroke="rgba(18, 52, 86, 1)" stroke-width="5" id="v0pcm44qq8"></line><line x1="200" y1="15" x2="200" y2="65" stroke="rgba(255, 0, 0, 1)" stroke-width="5" id="xn64wd8svcs"></line><line x1="215" y1="15" x2="215" y2="65" stroke="rgba(0, 255, 0, 1)" stroke-width="5" id="tvr8x9p8ew"></line><line x1="230" y1="15" x2="230" y2="65" stroke="rgba(0, 0, 255, 1)" stroke-width="5" id="2wdsf9qzs9a"></line><path d="M 15,80,l 20,5,l 5,20,l 20,5,l 20,-5,l 5,-20,l 20,-5,l -10,40,l -35,10,l -35,-10,Z" fill="rgba(255, 255, 0, 1)" stroke="rgba(0, 255, 255, 1)" stroke-width="2.5" id="tols40zeq5p"></path><path d="M 120,80,l 40,50,l 10,0,l 0,-50,l -10,0,l -40,50,l 10,0,l 30,-40,l 0,30,l -30,-40,Z" fill-rule="nonzero" fill="rgba(119, 255, 0, 1)" stroke="rgba(0, 119, 255, 1)" stroke-width="2.5" id="bwzj417hr6b"></path><path d="M 180,80,l 40,50,l 10,0,l 0,-50,l -10,0,l -40,50,l 10,0,l 30,-40,l 0,30,l -30,-40,Z" fill-rule="evenodd" fill="rgba(255, 0, 119, 1)" stroke="rgba(119, 0, 255, 1)" stroke-width="2.5" id="ip30xhyholf"></path><polygon points="20,150,20,235,125,210,100,170" fill="rgba(255, 0, 255, 1)" stroke="rgba(119, 0, 119, 1)" stroke-width="5" id="ikjql4hwn2a"></polygon><polyline points="230,150,230,235,150,210,125,170" fill="rgba(255, 119, 0, 1)" stroke="rgba(0, 255, 119, 1)" stroke-width="5" id="o1lb2lqtqa"></polyline></svg>