<svg id="root" width="250px" height="250px" xmlns="http://www.w3.org/2000/svg" xlink="http://www.w3.org/1999/xlink" version="1.1"><defs id="u1jxe19lk9"></defs><g id="uf3u47a6muc" transform="translate(66.25 66.25)"><circle cx="0" cy="0" r="2" id="rfj40mqt8vq" fill="rgba(255, 0, 0, 1)"></circle><g id="a54gfhhyt8o"><rect x="-38.4375" y="-38.4375" width="76.875" height="76.875" fill="rgba(0, 0, 0, 0)" stroke="rgba(128, 128, 128, 1)" stroke-width="2" id="ztri246n5ss"></rect></g><g id="qfakflwicl" transform="scale(0.9)"><rect x="-38.4375" y="-38.4375" width="76.875" height="76.875" fill="rgba(0, 0, 0, 0)" stroke="rgba(64, 64, 64, 1)" stroke-width="2" id="g9nln3lnobo"></rect></g><g id="82scmbg7q59" transform="scale(0.8)"><rect x="-38.4375" y="-38.4375" width="76.875" height="76.875" fill="rgba(0, 0, 0, 0)" stroke="rgba(0, 0, 0, 1)" stroke-width="2" id="0fq209zrwoz"></rect></g></g><g id="p8mhumzta1e" transform="translate(183.75 66.25)"><circle cx="0" cy="0" r="2" id="ezw1eanako6" fill="rgba(255, 0, 0, 1)"></circle><g id="2aefby2lg5e"><rect x="-38.4375" y="-38.4375" width="76.875" height="76.875" fill="rgba(0, 0, 0, 0)" stroke="rgba(128, 128, 128, 1)" stroke-width="2" id="p0dadkrpuk"></rect></g><g id="kb4ay8fu6xh" transform="scale(0.9 1.1)"><rect x="-38.4375" y="-38.4375" width="76.875" height="76.875" fill="rgba(0, 0, 0, 0)" stroke="rgba(64, 64, 64, 1)" stroke-width="2" id="6js69euteyh"></rect></g><g id="4cb456eoksn" transform="scale(0.8 1.2)"><rect x="-38.4375" y="-38.4375" width="76.875" height="76.875" fill="rgba(0, 0, 0, 0)" stroke="rgba(0, 0, 0, 1)" stroke-width="2" id="a0pud0dfmu5"></rect></g></g><g id="0sudz19lmnm" transform="translate(66.25 183.75)"><circle cx="0" cy="0" r="2" id="g7aogi2fgr" fill="rgba(255, 0, 0, 1)"></circle><g id="ayoh2x5wbk"><rect x="-38.4375" y="-38.4375" width="76.875" height="76.875" fill="rgba(0, 0, 0, 0)" stroke="rgba(128, 128, 128, 1)" stroke-width="2" id="qfdf3h83ceo"></rect></g><g id="c2xyr8qkrtr" transform="rotate(7.5 0 0)"><rect x="-38.4375" y="-38.4375" width="76.875" height="76.875" fill="rgba(0, 0, 0, 0)" stroke="rgba(64, 64, 64, 1)" stroke-width="2" id="telcpn8i4ca"></rect></g><g id="qchueaz925f" transform="rotate(15 0 0)"><rect x="-38.4375" y="-38.4375" width="76.875" height="76.875" fill="rgba(0, 0, 0, 0)" stroke="rgba(0, 0, 0, 1)" stroke-width="2" id="0ly4xsh2ye3j"></rect></g></g><g id="nhufarh9l8l" transform="translate(183.75 183.75)"><circle cx="0" cy="0" r="2" id="70wzy8ut77r" fill="rgba(255, 0, 0, 1)"></circle><g id="64i1895yobe"><rect x="-38.4375" y="-38.4375" width="76.875" height="76.875" fill="rgba(0, 0, 0, 0)" stroke="rgba(128, 128, 128, 1)" stroke-width="2" id="9m3znop0wpp"></rect></g><g id="71x502gwt5x" transform="skewX(7.5)"><rect x="-38.4375" y="-38.4375" width="76.875" height="76.875" fill="rgba(0, 0, 0, 0)" stroke="rgba(64, 64, 64, 1)" stroke-width="2" id="ieok0hmid3"></rect></g><g id="9kalz4b1vg" transform="skewX(15)"><rect x="-38.4375" y="-38.4375" width="76.875" height="76.875" fill="rgba(0, 0, 0, 0)" stroke="rgba(0, 0, 0, 1)" stroke-width="2" id="6cq3jct7jrh"></rect></g></g></svg>